<svg width="106" height="106" viewBox="0 0 106 106" fill="none" xmlns="http://www.w3.org/2000/svg">
<path d="M83.4243 19.4351C71.1936 19.4351 61.2401 29.3886 61.2401 41.6263C61.2401 53.8618 71.1936 63.8176 83.4243 63.8176C95.6644 63.8176 105.62 53.8618 105.62 41.6263C105.62 29.3874 95.6644 19.4351 83.4243 19.4351ZM92.4471 44.7376H86.1128V51.0731C86.1128 52.6864 84.8047 53.9922 83.1937 53.9922C81.5827 53.9922 80.277 52.6864 80.277 51.0731V44.7376H73.9414C72.3304 44.7376 71.0223 43.4318 71.0223 41.8185C71.0223 40.2076 72.3304 38.9018 73.9414 38.9018H80.277V32.5697C80.277 30.9588 81.5827 29.653 83.1937 29.653C84.8047 29.653 86.1128 30.9588 86.1128 32.5697V38.9018H92.4471C94.0581 38.9018 95.3639 40.2076 95.3639 41.8185C95.3639 43.4318 94.0581 44.7376 92.4471 44.7376Z" fill="#AACCBB"/>
<path d="M83.4243 19.4351C71.1936 19.4351 61.2401 29.3886 61.2401 41.6263C61.2401 53.8618 71.1936 63.8176 83.4243 63.8176C95.6644 63.8176 105.62 53.8618 105.62 41.6263C105.62 29.3874 95.6644 19.4351 83.4243 19.4351ZM92.4471 44.7376H86.1128V51.0731C86.1128 52.6864 84.8047 53.9922 83.1937 53.9922C81.5827 53.9922 80.277 52.6864 80.277 51.0731V44.7376H73.9414C72.3304 44.7376 71.0223 43.4318 71.0223 41.8185C71.0223 40.2076 72.3304 38.9018 73.9414 38.9018H80.277V32.5697C80.277 30.9588 81.5827 29.653 83.1937 29.653C84.8047 29.653 86.1128 30.9588 86.1128 32.5697V38.9018H92.4471C94.0581 38.9018 95.3639 40.2076 95.3639 41.8185C95.3639 43.4318 94.0581 44.7376 92.4471 44.7376Z" fill="#8F8F8F" fill-opacity="0.2"/>
<path d="M29.7103 64.2791L24.5617 91.1704L30.9159 96.2526L37.2631 91.1739L32.0376 64.2791H29.7103Z" fill="#AACCBB"/>
<path d="M29.7103 64.2791L24.5617 91.1704L30.9159 96.2526L37.2631 91.1739L32.0376 64.2791H29.7103Z" fill="#8F8F8F" fill-opacity="0.2"/>
<path d="M51.2073 55.5986C47.4379 59.318 42.6737 62.0122 37.3586 63.2586L42.9032 91.6945C43.1129 92.6951 42.7413 93.726 41.948 94.3609L39.559 96.27C46.209 95.4756 53.4158 93.7423 60.9628 90.5751V69.4707C60.9628 63.2143 57.7362 58.6773 51.2073 55.5986Z" fill="#54666E"/>
<path d="M51.2073 55.5986C47.4379 59.318 42.6737 62.0122 37.3586 63.2586L42.9032 91.6945C43.1129 92.6951 42.7413 93.726 41.948 94.3609L39.559 96.27C46.209 95.4756 53.4158 93.7423 60.9628 90.5751V69.4707C60.9628 63.2143 57.7362 58.6773 51.2073 55.5986Z" fill="#8F8F8F" fill-opacity="0.2"/>
<path d="M24.3707 63.3483C18.9309 62.1357 14.0561 59.41 10.2156 55.6196C3.95462 58.689 0.865479 63.2202 0.865479 69.4707V90.6765C3.87541 92.0755 11.6216 95.2287 22.401 96.3795L19.8826 94.3644C19.0882 93.7272 18.7154 92.701 18.9204 91.7051L24.3707 63.3483Z" fill="#54666E"/>
<path d="M24.3707 63.3483C18.9309 62.1357 14.0561 59.41 10.2156 55.6196C3.95462 58.689 0.865479 63.2202 0.865479 69.4707V90.6765C3.87541 92.0755 11.6216 95.2287 22.401 96.3795L19.8826 94.3644C19.0882 93.7272 18.7154 92.701 18.9204 91.7051L24.3707 63.3483Z" fill="#8F8F8F" fill-opacity="0.2"/>
<path d="M30.6934 58.6389C43.8665 58.6389 54.5795 47.8502 54.5795 34.5874C54.5795 21.3245 43.8654 10.5347 30.6934 10.5347C17.5319 10.5347 6.82361 21.3234 6.82361 34.5862C6.82361 47.849 17.5319 58.6389 30.6934 58.6389Z" fill="#54666E"/>
<path d="M30.6934 58.6389C43.8665 58.6389 54.5795 47.8502 54.5795 34.5874C54.5795 21.3245 43.8654 10.5347 30.6934 10.5347C17.5319 10.5347 6.82361 21.3234 6.82361 34.5862C6.82361 47.849 17.5319 58.6389 30.6934 58.6389Z" fill="#8F8F8F" fill-opacity="0.2"/>
</svg>
