<svg width="106" height="106" viewBox="0 0 106 106" fill="none" xmlns="http://www.w3.org/2000/svg">
<path d="M30.1587 104.82C29.376 104.82 28.5839 104.584 27.9001 104.094C26.1505 102.846 25.7475 100.416 26.9974 98.6687L42.2765 77.2811C43.5299 75.5316 45.9597 75.1308 47.7047 76.3784C49.4519 77.6271 49.8596 80.0569 48.6074 81.8042L33.3283 103.192C32.5676 104.254 31.3713 104.82 30.1587 104.82Z" fill="#54666E"/>
<path d="M30.1587 104.82C29.376 104.82 28.5839 104.584 27.9001 104.094C26.1505 102.846 25.7475 100.416 26.9974 98.6687L42.2765 77.2811C43.5299 75.5316 45.9597 75.1308 47.7047 76.3784C49.4519 77.6271 49.8596 80.0569 48.6074 81.8042L33.3283 103.192C32.5676 104.254 31.3713 104.82 30.1587 104.82Z" fill="#8F8F8F" fill-opacity="0.2"/>
<path d="M75.7143 104.82C74.4994 104.82 73.3054 104.254 72.5448 103.192L57.2633 81.8042C56.0169 80.057 56.4188 77.6272 58.1684 76.3784C59.9156 75.1321 62.3455 75.5339 63.5942 77.2812L78.8757 98.6687C80.1267 100.416 79.7202 102.846 77.9729 104.095C77.2892 104.584 76.4971 104.82 75.7143 104.82Z" fill="#54666E"/>
<path d="M75.7143 104.82C74.4994 104.82 73.3054 104.254 72.5448 103.192L57.2633 81.8042C56.0169 80.057 56.4188 77.6272 58.1684 76.3784C59.9156 75.1321 62.3455 75.5339 63.5942 77.2812L78.8757 98.6687C80.1267 100.416 79.7202 102.846 77.9729 104.095C77.2892 104.584 76.4971 104.82 75.7143 104.82Z" fill="#8F8F8F" fill-opacity="0.2"/>
<path d="M96.2282 1.96875H9.64253C8.03156 1.96875 6.72345 3.27453 6.72345 4.8855V79.5444C6.72345 81.1577 8.03156 82.4635 9.64253 82.4635H86.9468C93.6714 82.4635 99.1485 76.9923 99.1485 70.2642V4.8855C99.1473 3.27569 97.8392 1.96875 96.2282 1.96875Z" fill="#446F8B"/>
<path d="M96.2282 1.96875H9.64253C8.03156 1.96875 6.72345 3.27453 6.72345 4.8855V79.5444C6.72345 81.1577 8.03156 82.4635 9.64253 82.4635H86.9468C93.6714 82.4635 99.1485 76.9923 99.1485 70.2642V4.8855C99.1473 3.27569 97.8392 1.96875 96.2282 1.96875Z" fill="#8F8F8F" fill-opacity="0.2"/>
<path d="M51.9796 34.8169C50.3687 34.8169 49.0605 36.1227 49.0605 37.7336V65.0164C49.0605 66.6297 50.3687 67.9355 51.9796 67.9355C53.5894 67.9355 54.8952 66.6297 54.8952 65.0164V37.7336C54.8952 36.1227 53.5894 34.8169 51.9796 34.8169Z" fill="#AACCBB"/>
<path d="M51.9796 34.8169C50.3687 34.8169 49.0605 36.1227 49.0605 37.7336V65.0164C49.0605 66.6297 50.3687 67.9355 51.9796 67.9355C53.5894 67.9355 54.8952 66.6297 54.8952 65.0164V37.7336C54.8952 36.1227 53.5894 34.8169 51.9796 34.8169Z" fill="#8F8F8F" fill-opacity="0.2"/>
<path d="M33.4378 45.1841C31.8268 45.1841 30.5187 46.4899 30.5187 48.1008V65.0177C30.5187 66.6287 31.8268 67.9345 33.4378 67.9345C35.0488 67.9345 36.3569 66.6287 36.3569 65.0177V48.1008C36.3557 46.4899 35.0476 45.1841 33.4378 45.1841Z" fill="#AACCBB"/>
<path d="M33.4378 45.1841C31.8268 45.1841 30.5187 46.4899 30.5187 48.1008V65.0177C30.5187 66.6287 31.8268 67.9345 33.4378 67.9345C35.0488 67.9345 36.3569 66.6287 36.3569 65.0177V48.1008C36.3557 46.4899 35.0476 45.1841 33.4378 45.1841Z" fill="#8F8F8F" fill-opacity="0.2"/>
<path d="M72.9688 43C71.3578 43 70.0521 44.3058 70.0521 45.9191V65.0165C70.0521 66.6298 71.3578 67.9356 72.9688 67.9356C74.5798 67.9356 75.8879 66.6298 75.8879 65.0165V45.9191C75.8867 44.3058 74.5786 43 72.9688 43Z" fill="#AACCBB"/>
<path d="M72.9688 43C71.3578 43 70.0521 44.3058 70.0521 45.9191V65.0165C70.0521 66.6298 71.3578 67.9356 72.9688 67.9356C74.5798 67.9356 75.8879 66.6298 75.8879 65.0165V45.9191C75.8867 44.3058 74.5786 43 72.9688 43Z" fill="#8F8F8F" fill-opacity="0.2"/>
<path d="M85.3079 19.3188C84.1769 18.1656 82.3294 18.1446 81.1832 19.2734L69.3275 30.8716L46.9557 18.7935C45.9341 18.2402 44.6808 18.345 43.7641 19.066L20.8471 37.0802C19.5797 38.075 19.3619 39.9108 20.3555 41.1781C20.9286 41.9084 21.7883 42.2928 22.6514 42.2928C23.2816 42.2928 23.9211 42.0878 24.4511 41.6673L45.8666 24.839L68.4481 37.029C69.5721 37.6347 70.9595 37.4413 71.8739 36.5467L85.2625 23.447C86.4145 22.3171 86.4343 20.4697 85.3079 19.3188Z" fill="#E7FAD9"/>
<path d="M85.3079 19.3188C84.1769 18.1656 82.3294 18.1446 81.1832 19.2734L69.3275 30.8716L46.9557 18.7935C45.9341 18.2402 44.6808 18.345 43.7641 19.066L20.8471 37.0802C19.5797 38.075 19.3619 39.9108 20.3555 41.1781C20.9286 41.9084 21.7883 42.2928 22.6514 42.2928C23.2816 42.2928 23.9211 42.0878 24.4511 41.6673L45.8666 24.839L68.4481 37.029C69.5721 37.6347 70.9595 37.4413 71.8739 36.5467L85.2625 23.447C86.4145 22.3171 86.4343 20.4697 85.3079 19.3188Z" fill="#8F8F8F" fill-opacity="0.2"/>
<path d="M102.014 8.77597H4.02336C1.87308 8.77597 0.132812 7.03571 0.132812 4.88542C0.132812 2.73747 1.87308 0.994873 4.02336 0.994873H102.015C104.163 0.994873 105.908 2.73747 105.908 4.88542C105.907 7.03571 104.162 8.77597 102.014 8.77597Z" fill="#54666E"/>
<path d="M102.014 8.77597H4.02336C1.87308 8.77597 0.132812 7.03571 0.132812 4.88542C0.132812 2.73747 1.87308 0.994873 4.02336 0.994873H102.015C104.163 0.994873 105.908 2.73747 105.908 4.88542C105.907 7.03571 104.162 8.77597 102.014 8.77597Z" fill="#8F8F8F" fill-opacity="0.2"/>
</svg>
