<svg width="106" height="106" viewBox="0 0 106 106" fill="none" xmlns="http://www.w3.org/2000/svg">
<path d="M89.9532 11.5773C89.9509 9.96868 88.644 8.66406 87.0342 8.66406H20.8191C19.2081 8.66406 17.9012 9.97101 17.9012 11.582V102.544C17.9012 104.155 19.2081 105.461 20.8191 105.461H77.5967C84.4785 105.461 90.0779 99.8648 90.0779 92.9807L89.9532 11.5773Z" fill="#446F8B"/>
<path d="M89.9532 11.5773C89.9509 9.96868 88.644 8.66406 87.0342 8.66406H20.8191C19.2081 8.66406 17.9012 9.97101 17.9012 11.582V102.544C17.9012 104.155 19.2081 105.461 20.8191 105.461H77.5967C84.4785 105.461 90.0779 99.8648 90.0779 92.9807L89.9532 11.5773Z" fill="#8F8F8F" fill-opacity="0.2"/>
<path d="M36.6457 3.57834C36.5549 2.04891 35.2968 0.833984 33.7453 0.833984C32.1937 0.833984 30.9357 2.05007 30.8448 3.57834H30.8262V16.8714C30.8262 18.4836 32.1343 19.7893 33.7453 19.7893C35.3562 19.7893 36.6632 18.4836 36.6632 16.8714V3.57834H36.6457Z" fill="#242423"/>
<path d="M56.8847 3.57834C56.7939 2.04891 55.5358 0.833984 53.9843 0.833984C52.4327 0.833984 51.1747 2.05007 51.0838 3.57834H51.0664V16.8714C51.0664 18.4836 52.3733 19.7893 53.9843 19.7893C55.5952 19.7893 56.9022 18.4836 56.9022 16.8714V3.57834H56.8847Z" fill="#242423"/>
<path d="M77.1237 3.57834C77.0329 2.04891 75.7749 0.833984 74.2233 0.833984C72.6717 0.833984 71.4137 2.05007 71.3229 3.57834H71.3054V16.8714C71.3054 18.4836 72.6123 19.7893 74.2233 19.7893C75.8343 19.7893 77.1424 18.4836 77.1424 16.8714V3.57834H77.1237Z" fill="#242423"/>
<path d="M72.5692 43.0255H36.0947C34.4838 43.0255 33.178 41.7197 33.178 40.1076C33.178 38.4955 34.4838 37.1897 36.0947 37.1897H72.5692C74.1802 37.1897 75.4883 38.4955 75.4883 40.1076C75.4883 41.7197 74.1802 43.0255 72.5692 43.0255Z" fill="#AACCBB"/>
<path d="M72.5692 43.0255H36.0947C34.4838 43.0255 33.178 41.7197 33.178 40.1076C33.178 38.4955 34.4838 37.1897 36.0947 37.1897H72.5692C74.1802 37.1897 75.4883 38.4955 75.4883 40.1076C75.4883 41.7197 74.1802 43.0255 72.5692 43.0255Z" fill="#8F8F8F" fill-opacity="0.2"/>
<path d="M72.5692 59.7072H36.0947C34.4838 59.7072 33.178 58.4014 33.178 56.7892C33.178 55.1771 34.4838 53.8713 36.0947 53.8713H72.5692C74.1802 53.8713 75.4883 55.1771 75.4883 56.7892C75.4883 58.4014 74.1802 59.7072 72.5692 59.7072Z" fill="#EFDBCB"/>
<path d="M72.5692 59.7072H36.0947C34.4838 59.7072 33.178 58.4014 33.178 56.7892C33.178 55.1771 34.4838 53.8713 36.0947 53.8713H72.5692C74.1802 53.8713 75.4883 55.1771 75.4883 56.7892C75.4883 58.4014 74.1802 59.7072 72.5692 59.7072Z" fill="#8F8F8F" fill-opacity="0.2"/>
<path d="M46.124 76.0892H36.0959C34.4849 76.0892 33.1792 74.7823 33.1792 73.1713C33.1792 71.5592 34.4849 70.2534 36.0959 70.2534H46.124C47.7349 70.2534 49.0407 71.5592 49.0407 73.1713C49.0407 74.7823 47.7338 76.0892 46.124 76.0892Z" fill="#AACCBB"/>
<path d="M46.124 76.0892H36.0959C34.4849 76.0892 33.1792 74.7823 33.1792 73.1713C33.1792 71.5592 34.4849 70.2534 36.0959 70.2534H46.124C47.7349 70.2534 49.0407 71.5592 49.0407 73.1713C49.0407 74.7823 47.7338 76.0892 46.124 76.0892Z" fill="#8F8F8F" fill-opacity="0.2"/>
<path d="M63.3938 76.0892H59.0443C57.4334 76.0892 56.1264 74.7823 56.1264 73.1713C56.1264 71.5592 57.4334 70.2534 59.0443 70.2534H63.3938C65.0048 70.2534 66.3106 71.5592 66.3106 73.1713C66.3106 74.7823 65.0048 76.0892 63.3938 76.0892Z" fill="#AACCBB"/>
<path d="M63.3938 76.0892H59.0443C57.4334 76.0892 56.1264 74.7823 56.1264 73.1713C56.1264 71.5592 57.4334 70.2534 59.0443 70.2534H63.3938C65.0048 70.2534 66.3106 71.5592 66.3106 73.1713C66.3106 74.7823 65.0048 76.0892 63.3938 76.0892Z" fill="#8F8F8F" fill-opacity="0.2"/>
</svg>
