<svg width="424" height="493" viewBox="0 0 424 493" fill="none" xmlns="http://www.w3.org/2000/svg">
<g clip-path="url(#clip0_112_378)">
<path d="M424 437.622H310.196V436.147C339.988 436.147 368.56 424.298 389.626 403.208C410.692 382.117 422.526 353.512 422.526 323.685V244.169H424V437.622Z" fill="#F2F2F2"/>
<path d="M113.481 150.225C110.456 151.379 107.366 152.357 104.229 153.155C100.084 154.166 97.7434 154.635 93.7428 153.08C93.6023 153.026 93.4682 152.972 93.3417 152.919C85.7588 149.691 79.2766 144.325 74.6844 137.476C70.0921 130.626 67.5878 122.588 67.4762 114.339C67.4562 114.056 67.4562 113.759 67.4562 113.468C67.4523 112.07 67.5191 110.673 67.6562 109.282C67.8315 107.387 68.1343 105.505 68.5626 103.651L68.5226 103.644C65.2836 100.328 64.0373 95.7858 64.4505 91.2218C64.7336 88.1277 65.7144 85.1382 67.3191 82.4787C68.9238 79.8192 71.1104 77.559 73.7143 75.8684C77.7951 73.2997 82.3964 71.6737 87.1836 71.1086C88.469 70.9602 89.7618 70.8851 91.0557 70.8836H103.212C105.723 70.2951 108.273 69.8926 110.843 69.6791H110.863C135.329 67.6475 154.623 83.8861 152.824 103.644C152.81 103.666 152.79 103.687 152.777 103.709C152.257 104.558 151.797 105.364 151.391 106.133C150.997 106.851 150.664 107.54 150.378 108.193C148.145 113.243 158.755 191.595 154.95 192.785C152.784 193.46 144.053 135.156 145.619 146.243C147.592 160.153 124.752 146.054 113.481 150.225Z" fill="#2F2E41"/>
<path d="M150.338 291.863L184.252 364.199L53.7907 350.97L81.0239 281.529L150.338 291.863Z" fill="#FFB6B6"/>
<path d="M218.418 436.894C195.732 444.454 171.824 447.66 147.95 446.343L137.568 429.488C137.568 429.488 137.134 435.765 136.485 445.362C125.121 444.044 113.904 441.663 102.983 438.251C82.271 431.767 62.8561 421.72 43.176 412.455C39.1898 388.665 37.6941 351.98 59.732 330.625L178.351 352.386C178.351 352.386 197.383 366.638 192.291 371.743C187.2 376.84 186.411 376.051 189.757 379.4C193.102 382.749 200.33 387.226 200.403 390.155C200.433 391.298 208.545 412.034 218.418 436.894Z" fill="#2F2E41"/>
<path d="M129.624 152.083L100.966 154.085L82.4433 172.005L75.9563 173.164C70.1252 174.205 64.8784 177.352 61.2107 182.008C57.5431 186.664 55.7096 192.506 56.0579 198.426C57.3923 221.06 60.3799 254.878 66.6243 265.85C76.3069 282.863 84.3044 277.525 76.3069 282.863C68.3093 288.201 62.94 284.007 66.6243 292.443C70.3087 300.879 61.6447 311.7 61.6447 311.7L58.1957 315.153L61.8537 316.654L178.414 331.838C178.414 331.838 168.336 286.47 174.639 275.325C180.942 264.18 196.224 230.492 182.585 217.31L169.249 170.325L146.309 163.551L129.624 152.083Z" fill="#54666E"/>
<path d="M303.104 338.288C301.186 338.227 299.304 337.75 297.589 336.889C295.873 336.029 294.365 334.805 293.168 333.304C291.971 331.802 291.114 330.058 290.657 328.192C290.2 326.327 290.153 324.384 290.519 322.498L235.843 285.426L242.367 267.764L306.985 312.27C310.109 313.124 312.813 315.095 314.582 317.811C316.352 320.527 317.065 323.798 316.587 327.005C316.109 330.212 314.472 333.132 311.987 335.212C309.502 337.291 306.341 338.386 303.104 338.288Z" fill="#FFB6B6"/>
<path d="M148.671 168.106L140.726 171.255L183.109 254.128L270.847 314.004L283.494 292.603L216.707 234.848L189.968 183.507C186.205 176.281 179.902 170.709 172.275 167.864C164.648 165.02 156.238 165.106 148.671 168.106Z" fill="#54666E"/>
<path d="M113.804 144.795C129.697 144.795 142.58 131.896 142.58 115.985C142.58 100.073 129.697 87.1743 113.804 87.1743C97.9109 87.1743 85.0272 100.073 85.0272 115.985C85.0272 131.896 97.9109 144.795 113.804 144.795Z" fill="#FFB6B6"/>
<path d="M138.828 103.801C138.348 104.055 137.875 104.289 137.395 104.522C136.895 104.762 136.395 105.003 135.889 105.229C126.258 109.6 118.414 110.087 113.655 103.801C113.525 100.495 112.782 97.241 111.463 94.2065C111.696 97.5976 110.803 100.971 108.924 103.801H99.3399C89.4695 110.36 84.4044 116.386 91.2556 137.918C91.7022 139.332 94.7612 189.589 95.6343 193.453C80.6922 187.714 67.8028 126.788 67.4762 110.734C67.4562 110.474 67.4562 110.2 67.4562 109.933C67.4523 108.647 67.5191 107.362 67.6562 106.083C67.832 104.338 68.135 102.607 68.5626 100.906L68.5226 100.899C67.0023 99.4438 65.8425 97.6533 65.1355 95.6701C64.4286 93.6868 64.194 91.5657 64.4505 89.4757C66.9571 86.1898 70.059 83.4057 73.5944 81.2686C76.809 79.7101 80.1599 78.4504 83.6046 77.5053C83.6913 77.4853 83.7646 77.4653 83.8512 77.4453C84.9043 77.1584 85.9839 76.8982 87.0636 76.6713C89.2886 76.2041 91.5381 75.8633 93.8015 75.6504C93.9682 75.6437 94.1281 75.6304 94.2747 75.6304C95.1801 75.631 96.0686 75.8753 96.8473 76.3377C96.8539 76.3377 96.8539 76.3443 96.8672 76.3443C97.6154 76.7919 98.2359 77.4248 98.669 78.1821C99.1021 78.9394 99.3331 79.7955 99.3398 80.6681H110.017C110.41 80.6681 110.803 80.6814 111.196 80.7014C126.065 81.2953 138.015 87.6608 138.781 102.294C138.815 102.801 138.828 103.294 138.828 103.801Z" fill="#2F2E41"/>
<path d="M75.7049 104.96C86.1753 104.96 94.6631 96.4618 94.6631 85.9792C94.6631 75.4966 86.1753 66.9988 75.7049 66.9988C65.2346 66.9988 56.7467 75.4966 56.7467 85.9792C56.7467 96.4618 65.2346 104.96 75.7049 104.96Z" fill="#2F2E41"/>
<path d="M101.733 77.2003C99.5787 87.4587 88.9525 93.5941 78.7867 91.0844C73.9049 89.8791 69.7013 86.7817 67.1005 82.4735C64.4998 78.1652 63.7151 72.9991 64.9189 68.1116C67.4257 57.9339 79.7632 60.868 87.8647 54.2275C99.3254 44.8336 104.637 63.366 101.733 77.2003Z" fill="#2F2E41"/>
<path d="M59.6102 362.755C75.7679 296.787 107.783 240.086 160.804 195.662C162.856 192.282 166.163 189.855 170 188.914C173.837 187.973 177.89 188.593 181.271 190.64L307.315 267.153C310.691 269.208 313.115 272.519 314.055 276.36C314.995 280.201 314.375 284.259 312.331 287.644C292.093 355.334 261.783 414.072 211.137 454.737C209.085 458.117 205.778 460.543 201.941 461.485C198.104 462.426 194.051 461.805 190.671 459.759L64.6262 383.245C61.2506 381.191 58.8266 377.88 57.8863 374.039C56.9459 370.197 57.5659 366.139 59.6102 362.755Z" fill="#F2F2F2"/>
<path opacity="0.2" d="M82.0134 384.987C78.6378 382.933 76.2139 379.621 75.2736 375.78C74.3332 371.939 74.9532 367.881 76.9975 364.497C93.1552 298.528 125.17 241.828 178.191 197.403C179.549 195.191 181.467 193.377 183.751 192.145L181.27 190.64C177.89 188.593 173.837 187.972 170 188.914C166.163 189.855 162.856 192.282 160.804 195.661C107.783 240.086 75.7681 296.786 59.6104 362.755C57.566 366.139 56.946 370.197 57.8864 374.038C58.8267 377.88 61.2506 381.191 64.6263 383.245L190.671 459.758C192.914 461.11 195.474 461.844 198.092 461.885C200.71 461.926 203.293 461.274 205.578 459.995L82.0134 384.987Z" fill="black"/>
<path d="M229.832 348.131L145.225 297.092C143.88 296.279 142.914 294.965 142.536 293.438C142.159 291.912 142.403 290.298 143.213 288.951C144.024 287.604 145.335 286.635 146.859 286.255C148.383 285.876 149.996 286.117 151.342 286.927L235.949 337.966C237.29 338.781 238.253 340.094 238.629 341.619C239.004 343.144 238.76 344.756 237.95 346.101C237.141 347.446 235.832 348.415 234.31 348.795C232.788 349.176 231.178 348.937 229.832 348.131Z" fill="white"/>
<path d="M180.612 280.448L161.999 269.22C160.65 268.412 159.677 267.101 159.294 265.574C158.911 264.048 159.149 262.432 159.956 261.082C160.763 259.731 162.072 258.757 163.597 258.373C165.121 257.989 166.736 258.228 168.084 259.036L168.117 259.055L186.73 270.284C188.071 271.098 189.035 272.412 189.411 273.937C189.786 275.462 189.542 277.074 188.732 278.419C187.923 279.765 186.613 280.734 185.091 281.114C183.569 281.494 181.959 281.255 180.612 280.448Z" fill="white"/>
<path d="M216.384 370.474L131.778 319.435C130.432 318.624 129.463 317.311 129.084 315.785C128.704 314.258 128.946 312.644 129.755 311.296C130.564 309.948 131.875 308.977 133.399 308.595C134.923 308.214 136.536 308.454 137.883 309.263L137.895 309.27L222.502 360.309C223.843 361.124 224.806 362.438 225.182 363.962C225.557 365.487 225.313 367.099 224.503 368.444C223.694 369.789 222.385 370.758 220.863 371.138C219.341 371.519 217.731 371.28 216.384 370.474Z" fill="white"/>
<path d="M240.576 251.896C254.224 251.896 265.288 240.819 265.288 227.155C265.288 213.491 254.224 202.414 240.576 202.414C226.928 202.414 215.864 213.491 215.864 227.155C215.864 240.819 226.928 251.896 240.576 251.896Z" fill="#3F3D56"/>
<path d="M197.979 492.262C227.15 492.262 250.797 468.587 250.797 439.382C250.797 410.177 227.15 386.502 197.979 386.502C168.808 386.502 145.161 410.177 145.161 439.382C145.161 468.587 168.808 492.262 197.979 492.262Z" fill="white"/>
<path d="M197.979 493C187.387 493 177.033 489.855 168.225 483.964C159.418 478.072 152.554 469.698 148.501 459.901C144.447 450.104 143.387 439.323 145.453 428.922C147.519 418.521 152.62 408.967 160.11 401.469C167.6 393.97 177.142 388.864 187.531 386.795C197.919 384.726 208.687 385.788 218.473 389.846C228.259 393.904 236.623 400.776 242.508 409.593C248.393 418.411 251.534 428.777 251.534 439.382C251.518 453.597 245.87 467.226 235.83 477.278C225.79 487.33 212.178 492.984 197.979 493ZM197.979 387.24C187.678 387.24 177.609 390.298 169.044 396.027C160.479 401.757 153.804 409.9 149.862 419.428C145.92 428.956 144.889 439.44 146.898 449.555C148.908 459.669 153.868 468.96 161.152 476.253C168.436 483.545 177.716 488.511 187.819 490.523C197.921 492.535 208.393 491.502 217.91 487.555C227.426 483.609 235.56 476.925 241.283 468.351C247.006 459.776 250.06 449.695 250.06 439.382C250.045 425.558 244.552 412.304 234.789 402.529C225.025 392.754 211.787 387.255 197.979 387.24Z" fill="#3F3D56"/>
<path d="M190.774 466.904C189.861 466.904 188.962 466.691 188.146 466.283C187.33 465.874 186.621 465.281 186.074 464.55L171.664 445.315C171.2 444.697 170.863 443.994 170.671 443.245C170.479 442.496 170.436 441.717 170.545 440.952C170.654 440.187 170.912 439.451 171.305 438.786C171.699 438.121 172.219 437.54 172.836 437.076C173.454 436.612 174.157 436.275 174.905 436.083C175.653 435.892 176.431 435.849 177.195 435.959C177.959 436.069 178.694 436.328 179.358 436.722C180.022 437.117 180.602 437.638 181.065 438.257L190.492 450.84L214.705 414.479C215.133 413.836 215.683 413.284 216.324 412.854C216.965 412.425 217.684 412.125 218.441 411.974C219.197 411.822 219.976 411.822 220.733 411.971C221.49 412.121 222.21 412.419 222.852 412.848C223.494 413.276 224.046 413.827 224.475 414.469C224.904 415.111 225.203 415.831 225.354 416.588C225.506 417.346 225.507 418.126 225.357 418.883C225.207 419.641 224.91 420.362 224.482 421.005L195.663 464.284C195.141 465.067 194.44 465.713 193.618 466.169C192.796 466.624 191.876 466.876 190.937 466.902C190.883 466.903 190.828 466.904 190.774 466.904Z" fill="#54666E"/>
<path d="M368.556 171.41C370.655 171.231 372.255 169.9 372.13 168.438C372.005 166.976 370.203 165.937 368.104 166.117C366.005 166.296 364.405 167.627 364.53 169.089C364.654 170.55 366.457 171.59 368.556 171.41Z" fill="white"/>
<path d="M392.171 163.39C394.27 163.21 395.87 161.879 395.745 160.418C395.62 158.956 393.818 157.916 391.719 158.096C389.62 158.276 388.02 159.606 388.145 161.068C388.269 162.53 390.072 163.569 392.171 163.39Z" fill="#3F3D56"/>
<path d="M357.362 153.372C359.461 153.192 361.061 151.862 360.936 150.4C360.811 148.938 359.009 147.899 356.91 148.078C354.811 148.258 353.211 149.589 353.336 151.051C353.461 152.512 355.263 153.552 357.362 153.372Z" fill="#FF6584"/>
<path d="M347.456 147.56C348.36 147.355 348.854 146.136 348.561 144.836C348.267 143.536 347.297 142.647 346.394 142.852C345.49 143.056 344.996 144.276 345.289 145.576C345.583 146.876 346.553 147.764 347.456 147.56Z" fill="#E6E6E6"/>
<path d="M340.404 133.449C341.307 133.245 341.801 132.025 341.508 130.725C341.215 129.425 340.244 128.537 339.341 128.741C338.438 128.946 337.943 130.165 338.237 131.465C338.53 132.765 339.5 133.654 340.404 133.449Z" fill="#3F3D56"/>
<path d="M374.241 153.265C375.144 153.061 375.639 151.841 375.345 150.541C375.052 149.241 374.082 148.353 373.178 148.557C372.275 148.762 371.78 149.981 372.074 151.281C372.367 152.581 373.337 153.47 374.241 153.265Z" fill="#E6E6E6"/>
<path d="M363.926 161.838C364.83 161.634 365.324 160.414 365.031 159.114C364.737 157.814 363.767 156.926 362.864 157.13C361.96 157.334 361.466 158.554 361.759 159.854C362.053 161.154 363.023 162.042 363.926 161.838Z" fill="#FF6584"/>
<path d="M382.704 168.82C383.607 168.616 384.102 167.397 383.808 166.096C383.515 164.796 382.545 163.908 381.641 164.112C380.738 164.317 380.244 165.536 380.537 166.836C380.83 168.137 381.801 169.025 382.704 168.82Z" fill="#3F3D56"/>
<path d="M271.057 62.1068C271.417 60.6846 270.054 59.1117 268.012 58.5936C265.97 58.0755 264.023 58.8084 263.663 60.2306C263.303 61.6528 264.666 63.2257 266.708 63.7437C268.75 64.2618 270.697 63.5289 271.057 62.1068Z" fill="white"/>
<path d="M246.121 61.9458C246.481 60.5237 245.117 58.9508 243.076 58.4327C241.034 57.9146 239.086 58.6475 238.726 60.0697C238.366 61.4918 239.73 63.0648 241.772 63.5829C243.814 64.1009 245.761 63.368 246.121 61.9458Z" fill="#3F3D56"/>
<path d="M275.737 82.8194C276.097 81.3972 274.733 79.8244 272.691 79.3063C270.649 78.7882 268.702 79.5211 268.342 80.9433C267.982 82.3654 269.346 83.9383 271.388 84.4564C273.43 84.9745 275.377 84.2416 275.737 82.8194Z" fill="#FF6584"/>
<path d="M281.55 90.6297C281.697 89.3051 281.071 88.1478 280.151 88.0448C279.23 87.9418 278.364 88.9322 278.217 90.2568C278.069 91.5815 278.695 92.7387 279.615 92.8417C280.536 92.9447 281.402 91.9543 281.55 90.6297Z" fill="#E6E6E6"/>
<path d="M283.6 106.274C283.748 104.95 283.122 103.792 282.201 103.689C281.281 103.586 280.415 104.577 280.267 105.901C280.119 107.226 280.745 108.383 281.666 108.486C282.586 108.589 283.452 107.599 283.6 106.274Z" fill="#3F3D56"/>
<path d="M258.106 76.4605C258.254 75.1359 257.628 73.9786 256.707 73.8756C255.787 73.7727 254.921 74.763 254.773 76.0876C254.625 77.4123 255.252 78.5696 256.172 78.6725C257.092 78.7755 257.958 77.7851 258.106 76.4605Z" fill="#E6E6E6"/>
<path d="M270.655 71.7405C270.803 70.4159 270.177 69.2586 269.257 69.1557C268.336 69.0527 267.47 70.043 267.322 71.3677C267.175 72.6923 267.801 73.8496 268.721 73.9525C269.642 74.0555 270.508 73.0652 270.655 71.7405Z" fill="#FF6584"/>
<path d="M255.195 58.9888C255.343 57.6642 254.717 56.5069 253.797 56.4039C252.876 56.301 252.01 57.2913 251.862 58.616C251.715 59.9406 252.341 61.0979 253.261 61.2008C254.182 61.3038 255.048 60.3135 255.195 58.9888Z" fill="#3F3D56"/>
<path d="M1.47362 193.452H0V0H113.804V1.47534C84.012 1.47534 55.4403 13.324 34.3743 34.4146C13.3084 55.5053 1.47362 84.1104 1.47362 113.937V193.452Z" fill="#F2F2F2"/>
<path d="M67.4695 363.454C65.5862 362.681 63.893 361.508 62.507 360.016C61.1209 358.524 60.0752 356.748 59.4421 354.811C58.809 352.875 58.6037 350.824 58.8402 348.8C59.0768 346.776 59.7497 344.828 60.8123 343.09L20.2102 285.949L33.2356 270.819L80.9637 339.039C83.7526 341.048 85.7087 344.01 86.4615 347.366C87.2143 350.722 86.7113 354.238 85.048 357.247C83.3847 360.257 80.6765 362.55 77.4367 363.694C74.1969 364.838 70.6505 364.753 67.4695 363.454Z" fill="#FFB6B6"/>
<path d="M68.4024 182.376C66.3483 181.166 63.9307 180.729 61.5835 181.142C59.2363 181.556 57.1133 182.794 55.5955 184.634L0.736725 261.446L51.5765 333.738L71.4703 312.346L40.5244 263.659L81.6517 224.456C85.0314 217.043 85.5477 208.639 83.1007 200.868C80.6538 193.096 75.4172 186.508 68.4024 182.376Z" fill="#54666E"/>
</g>
<defs>
<clipPath id="clip0_112_378">
<rect width="424" height="493" fill="white"/>
</clipPath>
</defs>
</svg>
