<svg width="393" height="217" viewBox="0 0 393 217" fill="none" xmlns="http://www.w3.org/2000/svg">
<g filter="url(#filter0_d_185_7)">
<path d="M67.4999 135.5C67.4999 141.299 62.7989 146 56.9999 146C51.2009 146 46.4999 141.299 46.4999 135.5C46.4999 129.701 51.2009 125 56.9999 125C62.7989 125 67.4999 129.701 67.4999 135.5Z" fill="#656D5F"/>
<path d="M67.4999 135.5C67.4999 141.299 62.7989 146 56.9999 146C51.2009 146 46.4999 141.299 46.4999 135.5C46.4999 129.701 51.2009 125 56.9999 125C62.7989 125 67.4999 129.701 67.4999 135.5Z" fill="#EFDBCB"/>
<path d="M204 16.5001C158.5 134.5 79.4999 199 10.9999 186.5C72.9299 212.327 147 159.5 203 50.0001V144.5C203.454 154.158 201.004 156.958 191 156.5H171V167.5H262V156.5H243.051C241.76 156.559 240.602 156.561 239.563 156.5C232.553 156.086 231 152.774 231 144.5L231 103.5L256 133.5L310 66.5001V146.5C310.051 154.57 307.902 156.9 300 157H286.5V167.5H364V157H351.001C343.098 156.9 340.95 154.57 341.001 146.5C340.501 109.167 340 38.0001 340 34.5001C340 31.0001 344.5 25.5001 350 25.5001H364V16.5001H318L257.5 97.5001L230 64.5001V35.5001C230 33.0001 231 26.5001 237.5 26.5001H254V16.5001H204Z" fill="#656D5F"/>
<path d="M204 16.5001C158.5 134.5 79.4999 199 10.9999 186.5C72.9299 212.327 147 159.5 203 50.0001V144.5C203.454 154.158 201.004 156.958 191 156.5H171V167.5H262V156.5H243.051C241.76 156.559 240.602 156.561 239.563 156.5C232.553 156.086 231 152.774 231 144.5L231 103.5L256 133.5L310 66.5001V146.5C310.051 154.57 307.902 156.9 300 157H286.5V167.5H364V157H351.001C343.098 156.9 340.95 154.57 341.001 146.5C340.501 109.167 340 38.0001 340 34.5001C340 31.0001 344.5 25.5001 350 25.5001H364V16.5001H318L257.5 97.5001L230 64.5001V35.5001C230 33.0001 231 26.5001 237.5 26.5001H254V16.5001H204Z" fill="#EFDBCB"/>
</g>
<defs>
<filter id="filter0_d_185_7" x="-6.10352e-05" y="0.500122" width="393" height="216.461" filterUnits="userSpaceOnUse" color-interpolation-filters="sRGB">
<feFlood flood-opacity="0" result="BackgroundImageFix"/>
<feColorMatrix in="SourceAlpha" type="matrix" values="0 0 0 0 0 0 0 0 0 0 0 0 0 0 0 0 0 0 127 0" result="hardAlpha"/>
<feOffset dx="9" dy="4"/>
<feGaussianBlur stdDeviation="10"/>
<feComposite in2="hardAlpha" operator="out"/>
<feColorMatrix type="matrix" values="0 0 0 0 0 0 0 0 0 0 0 0 0 0 0 0 0 0 0.25 0"/>
<feBlend mode="normal" in2="BackgroundImageFix" result="effect1_dropShadow_185_7"/>
<feBlend mode="normal" in="SourceGraphic" in2="effect1_dropShadow_185_7" result="shape"/>
</filter>
</defs>
</svg>
