<svg width="688" height="588" viewBox="0 0 688 588" fill="none" xmlns="http://www.w3.org/2000/svg">
<rect y="0.5" width="688" height="587" fill="#6E7469"/>
<g filter="url(#filter0_d_132_97)">
<path d="M162.5 282.5C162.5 288.299 157.799 293 152 293C146.201 293 141.5 288.299 141.5 282.5C141.5 276.701 146.201 272 152 272C157.799 272 162.5 276.701 162.5 282.5Z" fill="#656D5F"/>
<path d="M162.5 282.5C162.5 288.299 157.799 293 152 293C146.201 293 141.5 288.299 141.5 282.5C141.5 276.701 146.201 272 152 272C157.799 272 162.5 276.701 162.5 282.5Z" fill="#EFDBCB"/>
<path d="M299 163.5C253.5 281.5 174.5 346 106 333.5C167.93 359.327 242 306.5 298 197V291.5C298.454 301.158 296.004 303.958 286 303.5H266V314.5H357V303.5H338.051C336.76 303.559 335.602 303.561 334.563 303.5C327.553 303.086 326 299.774 326 291.5L326 250.5L351 280.5L405 213.5V293.5C405.051 301.57 402.902 303.9 395 304H381.5V314.5H459V304H446.001C438.098 303.9 435.95 301.57 436.001 293.5C435.501 256.167 435 185 435 181.5C435 178 439.5 172.5 445 172.5H459V163.5H413L352.5 244.5L325 211.5V182.5C325 180 326 173.5 332.5 173.5H349V163.5H299Z" fill="#656D5F"/>
<path d="M299 163.5C253.5 281.5 174.5 346 106 333.5C167.93 359.327 242 306.5 298 197V291.5C298.454 301.158 296.004 303.958 286 303.5H266V314.5H357V303.5H338.051C336.76 303.559 335.602 303.561 334.563 303.5C327.553 303.086 326 299.774 326 291.5L326 250.5L351 280.5L405 213.5V293.5C405.051 301.57 402.902 303.9 395 304H381.5V314.5H459V304H446.001C438.098 303.9 435.95 301.57 436.001 293.5C435.501 256.167 435 185 435 181.5C435 178 439.5 172.5 445 172.5H459V163.5H413L352.5 244.5L325 211.5V182.5C325 180 326 173.5 332.5 173.5H349V163.5H299Z" fill="#EFDBCB"/>
</g>
<path d="M109.251 384.996V408.516C109.251 411.78 108.307 414.324 106.419 416.148C104.531 417.94 102.003 418.836 98.8351 418.836C95.6351 418.836 93.0431 417.908 91.0591 416.052C89.1071 414.196 88.1311 411.604 88.1311 408.276H94.8511C94.8831 409.716 95.2191 410.836 95.8591 411.636C96.5311 412.436 97.4911 412.836 98.7391 412.836C99.9551 412.836 100.883 412.452 101.523 411.684C102.163 410.916 102.483 409.86 102.483 408.516V384.996H109.251ZM158.418 384.996V418.5H151.698V396.708L142.722 418.5H137.634L128.61 396.708V418.5H121.89V384.996H129.522L140.178 409.908L150.834 384.996H158.418ZM184.468 401.7C184.468 398.404 185.204 395.46 186.676 392.868C188.18 390.244 190.212 388.212 192.772 386.772C195.364 385.3 198.26 384.564 201.46 384.564C205.204 384.564 208.484 385.524 211.3 387.444C214.116 389.364 216.084 392.02 217.204 395.412H209.476C208.708 393.812 207.62 392.612 206.212 391.812C204.836 391.012 203.236 390.612 201.412 390.612C199.46 390.612 197.716 391.076 196.18 392.004C194.676 392.9 193.492 394.18 192.628 395.844C191.796 397.508 191.38 399.46 191.38 401.7C191.38 403.908 191.796 405.86 192.628 407.556C193.492 409.22 194.676 410.516 196.18 411.444C197.716 412.34 199.46 412.788 201.412 412.788C203.236 412.788 204.836 412.388 206.212 411.588C207.62 410.756 208.708 409.54 209.476 407.94H217.204C216.084 411.364 214.116 414.036 211.3 415.956C208.516 417.844 205.236 418.788 201.46 418.788C198.26 418.788 195.364 418.068 192.772 416.628C190.212 415.156 188.18 413.124 186.676 410.532C185.204 407.94 184.468 404.996 184.468 401.7ZM239.551 418.932C236.991 418.932 234.687 418.372 232.639 417.252C230.591 416.1 228.975 414.484 227.791 412.404C226.639 410.324 226.063 407.924 226.063 405.204C226.063 402.484 226.655 400.084 227.839 398.004C229.055 395.924 230.703 394.324 232.783 393.204C234.863 392.052 237.183 391.476 239.743 391.476C242.303 391.476 244.623 392.052 246.703 393.204C248.783 394.324 250.415 395.924 251.599 398.004C252.815 400.084 253.423 402.484 253.423 405.204C253.423 407.924 252.799 410.324 251.551 412.404C250.335 414.484 248.671 416.1 246.559 417.252C244.479 418.372 242.143 418.932 239.551 418.932ZM239.551 413.076C240.767 413.076 241.903 412.788 242.959 412.212C244.047 411.604 244.911 410.708 245.551 409.524C246.191 408.34 246.511 406.9 246.511 405.204C246.511 402.676 245.839 400.74 244.495 399.396C243.183 398.02 241.567 397.332 239.647 397.332C237.727 397.332 236.111 398.02 234.799 399.396C233.519 400.74 232.879 402.676 232.879 405.204C232.879 407.732 233.503 409.684 234.751 411.06C236.031 412.404 237.631 413.076 239.551 413.076ZM277.889 391.524C281.057 391.524 283.617 392.532 285.569 394.548C287.521 396.532 288.497 399.316 288.497 402.9V418.5H281.777V403.812C281.777 401.7 281.249 400.084 280.193 398.964C279.137 397.812 277.697 397.236 275.873 397.236C274.017 397.236 272.545 397.812 271.457 398.964C270.401 400.084 269.873 401.7 269.873 403.812V418.5H263.153V391.908H269.873V395.22C270.769 394.068 271.905 393.172 273.281 392.532C274.689 391.86 276.225 391.524 277.889 391.524ZM309.863 418.932C307.687 418.932 305.735 418.548 304.007 417.78C302.279 416.98 300.903 415.908 299.879 414.564C298.887 413.22 298.343 411.732 298.247 410.1H305.015C305.143 411.124 305.639 411.972 306.503 412.644C307.399 413.316 308.503 413.652 309.815 413.652C311.095 413.652 312.087 413.396 312.791 412.884C313.527 412.372 313.895 411.716 313.895 410.916C313.895 410.052 313.447 409.412 312.551 408.996C311.687 408.548 310.295 408.068 308.375 407.556C306.391 407.076 304.759 406.58 303.479 406.068C302.231 405.556 301.143 404.772 300.215 403.716C299.319 402.66 298.871 401.236 298.871 399.444C298.871 397.972 299.287 396.628 300.119 395.412C300.983 394.196 302.199 393.236 303.767 392.532C305.367 391.828 307.239 391.476 309.383 391.476C312.551 391.476 315.079 392.276 316.967 393.876C318.855 395.444 319.895 397.572 320.087 400.26H313.655C313.559 399.204 313.111 398.372 312.311 397.764C311.543 397.124 310.503 396.804 309.191 396.804C307.975 396.804 307.031 397.028 306.359 397.476C305.719 397.924 305.399 398.548 305.399 399.348C305.399 400.244 305.847 400.932 306.743 401.412C307.639 401.86 309.031 402.324 310.919 402.804C312.839 403.284 314.423 403.78 315.671 404.292C316.919 404.804 317.991 405.604 318.887 406.692C319.815 407.748 320.295 409.156 320.327 410.916C320.327 412.452 319.895 413.828 319.031 415.044C318.199 416.26 316.983 417.22 315.383 417.924C313.815 418.596 311.975 418.932 309.863 418.932ZM355.747 391.908V418.5H348.979V415.14C348.115 416.292 346.979 417.204 345.571 417.876C344.195 418.516 342.691 418.836 341.059 418.836C338.979 418.836 337.139 418.404 335.539 417.54C333.939 416.644 332.675 415.348 331.747 413.652C330.851 411.924 330.403 409.876 330.403 407.508V391.908H337.123V406.548C337.123 408.66 337.651 410.292 338.707 411.444C339.763 412.564 341.203 413.124 343.027 413.124C344.883 413.124 346.339 412.564 347.395 411.444C348.451 410.292 348.979 408.66 348.979 406.548V391.908H355.747ZM373.898 382.98V418.5H367.178V382.98H373.898ZM393.161 397.428V410.292C393.161 411.188 393.369 411.844 393.785 412.26C394.233 412.644 394.969 412.836 395.993 412.836H399.113V418.5H394.889C389.225 418.5 386.393 415.748 386.393 410.244V397.428H383.225V391.908H386.393V385.332H393.161V391.908H399.113V397.428H393.161ZM420.554 418.932C417.994 418.932 415.69 418.372 413.642 417.252C411.594 416.1 409.978 414.484 408.794 412.404C407.642 410.324 407.066 407.924 407.066 405.204C407.066 402.484 407.658 400.084 408.842 398.004C410.058 395.924 411.706 394.324 413.786 393.204C415.866 392.052 418.186 391.476 420.746 391.476C423.306 391.476 425.626 392.052 427.706 393.204C429.786 394.324 431.418 395.924 432.602 398.004C433.818 400.084 434.426 402.484 434.426 405.204C434.426 407.924 433.802 410.324 432.554 412.404C431.338 414.484 429.674 416.1 427.562 417.252C425.482 418.372 423.146 418.932 420.554 418.932ZM420.554 413.076C421.77 413.076 422.906 412.788 423.962 412.212C425.05 411.604 425.914 410.708 426.554 409.524C427.194 408.34 427.514 406.9 427.514 405.204C427.514 402.676 426.842 400.74 425.498 399.396C424.186 398.02 422.57 397.332 420.65 397.332C418.73 397.332 417.114 398.02 415.802 399.396C414.522 400.74 413.882 402.676 413.882 405.204C413.882 407.732 414.506 409.684 415.754 411.06C417.034 412.404 418.634 413.076 420.554 413.076ZM450.876 396.036C451.74 394.628 452.86 393.524 454.236 392.724C455.644 391.924 457.244 391.524 459.036 391.524V398.58H457.26C455.148 398.58 453.548 399.076 452.46 400.068C451.404 401.06 450.876 402.788 450.876 405.252V418.5H444.156V391.908H450.876V396.036ZM471.77 388.74C470.586 388.74 469.594 388.372 468.794 387.636C468.026 386.868 467.642 385.924 467.642 384.804C467.642 383.684 468.026 382.756 468.794 382.02C469.594 381.252 470.586 380.868 471.77 380.868C472.954 380.868 473.93 381.252 474.698 382.02C475.498 382.756 475.898 383.684 475.898 384.804C475.898 385.924 475.498 386.868 474.698 387.636C473.93 388.372 472.954 388.74 471.77 388.74ZM475.082 391.908V418.5H468.362V391.908H475.082ZM484.793 405.108C484.793 402.42 485.321 400.036 486.377 397.956C487.465 395.876 488.921 394.276 490.745 393.156C492.601 392.036 494.665 391.476 496.937 391.476C498.921 391.476 500.649 391.876 502.121 392.676C503.625 393.476 504.825 394.484 505.721 395.7V391.908H512.489V418.5H505.721V414.612C504.857 415.86 503.657 416.9 502.121 417.732C500.617 418.532 498.873 418.932 496.889 418.932C494.649 418.932 492.601 418.356 490.745 417.204C488.921 416.052 487.465 414.436 486.377 412.356C485.321 410.244 484.793 407.828 484.793 405.108ZM505.721 405.204C505.721 403.572 505.401 402.18 504.761 401.028C504.121 399.844 503.257 398.948 502.169 398.34C501.081 397.7 499.913 397.38 498.665 397.38C497.417 397.38 496.265 397.684 495.209 398.292C494.153 398.9 493.289 399.796 492.617 400.98C491.977 402.132 491.657 403.508 491.657 405.108C491.657 406.708 491.977 408.116 492.617 409.332C493.289 410.516 494.153 411.428 495.209 412.068C496.297 412.708 497.449 413.028 498.665 413.028C499.913 413.028 501.081 412.724 502.169 412.116C503.257 411.476 504.121 410.58 504.761 409.428C505.401 408.244 505.721 406.836 505.721 405.204ZM534.029 418.932C531.853 418.932 529.901 418.548 528.173 417.78C526.445 416.98 525.069 415.908 524.045 414.564C523.053 413.22 522.509 411.732 522.413 410.1H529.181C529.309 411.124 529.805 411.972 530.669 412.644C531.565 413.316 532.669 413.652 533.981 413.652C535.261 413.652 536.253 413.396 536.957 412.884C537.693 412.372 538.061 411.716 538.061 410.916C538.061 410.052 537.613 409.412 536.717 408.996C535.853 408.548 534.461 408.068 532.541 407.556C530.557 407.076 528.925 406.58 527.645 406.068C526.397 405.556 525.309 404.772 524.381 403.716C523.485 402.66 523.037 401.236 523.037 399.444C523.037 397.972 523.453 396.628 524.285 395.412C525.149 394.196 526.365 393.236 527.933 392.532C529.533 391.828 531.405 391.476 533.549 391.476C536.717 391.476 539.245 392.276 541.133 393.876C543.021 395.444 544.061 397.572 544.253 400.26H537.821C537.725 399.204 537.277 398.372 536.477 397.764C535.709 397.124 534.669 396.804 533.357 396.804C532.141 396.804 531.197 397.028 530.525 397.476C529.885 397.924 529.565 398.548 529.565 399.348C529.565 400.244 530.013 400.932 530.909 401.412C531.805 401.86 533.197 402.324 535.085 402.804C537.005 403.284 538.589 403.78 539.837 404.292C541.085 404.804 542.157 405.604 543.053 406.692C543.981 407.748 544.461 409.156 544.493 410.916C544.493 412.452 544.061 413.828 543.197 415.044C542.365 416.26 541.149 417.22 539.549 417.924C537.981 418.596 536.141 418.932 534.029 418.932ZM596.486 391.908L580.022 431.076H572.87L578.63 417.828L567.974 391.908H575.51L582.374 410.484L589.334 391.908H596.486ZM229.993 490.836C227.657 490.836 225.545 490.436 223.657 489.636C221.801 488.836 220.329 487.684 219.241 486.18C218.153 484.676 217.593 482.9 217.561 480.852H224.761C224.857 482.228 225.337 483.316 226.201 484.116C227.097 484.916 228.313 485.316 229.849 485.316C231.417 485.316 232.649 484.948 233.545 484.212C234.441 483.444 234.889 482.452 234.889 481.236C234.889 480.244 234.585 479.428 233.977 478.788C233.369 478.148 232.601 477.652 231.673 477.3C230.777 476.916 229.529 476.5 227.929 476.052C225.753 475.412 223.977 474.788 222.601 474.18C221.257 473.54 220.089 472.596 219.097 471.348C218.137 470.068 217.657 468.372 217.657 466.26C217.657 464.276 218.153 462.548 219.145 461.076C220.137 459.604 221.529 458.484 223.321 457.716C225.113 456.916 227.161 456.516 229.465 456.516C232.921 456.516 235.721 457.364 237.865 459.06C240.041 460.724 241.241 463.06 241.465 466.068H234.073C234.009 464.916 233.513 463.972 232.585 463.236C231.689 462.468 230.489 462.084 228.985 462.084C227.673 462.084 226.617 462.42 225.817 463.092C225.049 463.764 224.665 464.74 224.665 466.02C224.665 466.916 224.953 467.668 225.529 468.276C226.137 468.852 226.873 469.332 227.737 469.716C228.633 470.068 229.881 470.484 231.481 470.964C233.657 471.604 235.433 472.244 236.809 472.884C238.185 473.524 239.369 474.484 240.361 475.764C241.353 477.044 241.849 478.724 241.849 480.804C241.849 482.596 241.385 484.26 240.457 485.796C239.529 487.332 238.169 488.564 236.377 489.492C234.585 490.388 232.457 490.836 229.993 490.836ZM277.195 476.628C277.195 477.588 277.131 478.452 277.003 479.22H257.563C257.723 481.14 258.395 482.644 259.579 483.732C260.763 484.82 262.219 485.364 263.947 485.364C266.443 485.364 268.219 484.292 269.275 482.148H276.523C275.755 484.708 274.283 486.82 272.107 488.484C269.931 490.116 267.259 490.932 264.091 490.932C261.531 490.932 259.227 490.372 257.179 489.252C255.163 488.1 253.579 486.484 252.427 484.404C251.307 482.324 250.747 479.924 250.747 477.204C250.747 474.452 251.307 472.036 252.427 469.956C253.547 467.876 255.115 466.276 257.131 465.156C259.147 464.036 261.467 463.476 264.091 463.476C266.619 463.476 268.875 464.02 270.859 465.108C272.875 466.196 274.427 467.748 275.515 469.764C276.635 471.748 277.195 474.036 277.195 476.628ZM270.235 474.708C270.203 472.98 269.579 471.604 268.363 470.58C267.147 469.524 265.659 468.996 263.899 468.996C262.235 468.996 260.827 469.508 259.675 470.532C258.555 471.524 257.867 472.916 257.611 474.708H270.235ZM293.619 468.036C294.483 466.628 295.603 465.524 296.979 464.724C298.387 463.924 299.987 463.524 301.779 463.524V470.58H300.003C297.891 470.58 296.291 471.076 295.203 472.068C294.147 473.06 293.619 474.788 293.619 477.252V490.5H286.899V463.908H293.619V468.036ZM322.194 484.308L328.914 463.908H336.066L326.226 490.5H318.066L308.274 463.908H315.474L322.194 484.308ZM348.048 460.74C346.864 460.74 345.872 460.372 345.072 459.636C344.304 458.868 343.92 457.924 343.92 456.804C343.92 455.684 344.304 454.756 345.072 454.02C345.872 453.252 346.864 452.868 348.048 452.868C349.232 452.868 350.208 453.252 350.976 454.02C351.776 454.756 352.176 455.684 352.176 456.804C352.176 457.924 351.776 458.868 350.976 459.636C350.208 460.372 349.232 460.74 348.048 460.74ZM351.36 463.908V490.5H344.64V463.908H351.36ZM361.071 477.204C361.071 474.452 361.631 472.052 362.751 470.004C363.871 467.924 365.423 466.324 367.407 465.204C369.391 464.052 371.663 463.476 374.223 463.476C377.519 463.476 380.239 464.308 382.383 465.972C384.559 467.604 386.015 469.908 386.751 472.884H379.503C379.119 471.732 378.463 470.836 377.535 470.196C376.639 469.524 375.519 469.188 374.175 469.188C372.255 469.188 370.735 469.892 369.615 471.3C368.495 472.676 367.935 474.644 367.935 477.204C367.935 479.732 368.495 481.7 369.615 483.108C370.735 484.484 372.255 485.172 374.175 485.172C376.895 485.172 378.671 483.956 379.503 481.524H386.751C386.015 484.404 384.559 486.692 382.383 488.388C380.207 490.084 377.487 490.932 374.223 490.932C371.663 490.932 369.391 490.372 367.407 489.252C365.423 488.1 363.871 486.5 362.751 484.452C361.631 482.372 361.071 479.956 361.071 477.204ZM399.883 460.74C398.699 460.74 397.707 460.372 396.907 459.636C396.139 458.868 395.755 457.924 395.755 456.804C395.755 455.684 396.139 454.756 396.907 454.02C397.707 453.252 398.699 452.868 399.883 452.868C401.067 452.868 402.043 453.252 402.811 454.02C403.611 454.756 404.011 455.684 404.011 456.804C404.011 457.924 403.611 458.868 402.811 459.636C402.043 460.372 401.067 460.74 399.883 460.74ZM403.195 463.908V490.5H396.475V463.908H403.195ZM426.442 490.932C423.882 490.932 421.578 490.372 419.53 489.252C417.482 488.1 415.866 486.484 414.682 484.404C413.53 482.324 412.954 479.924 412.954 477.204C412.954 474.484 413.546 472.084 414.73 470.004C415.946 467.924 417.594 466.324 419.674 465.204C421.754 464.052 424.074 463.476 426.634 463.476C429.194 463.476 431.514 464.052 433.594 465.204C435.674 466.324 437.306 467.924 438.49 470.004C439.706 472.084 440.314 474.484 440.314 477.204C440.314 479.924 439.69 482.324 438.442 484.404C437.226 486.484 435.562 488.1 433.45 489.252C431.37 490.372 429.034 490.932 426.442 490.932ZM426.442 485.076C427.658 485.076 428.794 484.788 429.85 484.212C430.938 483.604 431.802 482.708 432.442 481.524C433.082 480.34 433.402 478.9 433.402 477.204C433.402 474.676 432.73 472.74 431.386 471.396C430.074 470.02 428.458 469.332 426.538 469.332C424.618 469.332 423.002 470.02 421.69 471.396C420.41 472.74 419.77 474.676 419.77 477.204C419.77 479.732 420.394 481.684 421.642 483.06C422.922 484.404 424.522 485.076 426.442 485.076ZM460.219 490.932C458.043 490.932 456.091 490.548 454.363 489.78C452.635 488.98 451.259 487.908 450.235 486.564C449.243 485.22 448.699 483.732 448.603 482.1H455.371C455.499 483.124 455.995 483.972 456.859 484.644C457.755 485.316 458.859 485.652 460.171 485.652C461.451 485.652 462.443 485.396 463.147 484.884C463.883 484.372 464.251 483.716 464.251 482.916C464.251 482.052 463.803 481.412 462.907 480.996C462.043 480.548 460.651 480.068 458.731 479.556C456.747 479.076 455.115 478.58 453.835 478.068C452.587 477.556 451.499 476.772 450.571 475.716C449.675 474.66 449.227 473.236 449.227 471.444C449.227 469.972 449.643 468.628 450.475 467.412C451.339 466.196 452.555 465.236 454.123 464.532C455.723 463.828 457.595 463.476 459.739 463.476C462.907 463.476 465.435 464.276 467.323 465.876C469.211 467.444 470.251 469.572 470.443 472.26H464.011C463.915 471.204 463.467 470.372 462.667 469.764C461.899 469.124 460.859 468.804 459.547 468.804C458.331 468.804 457.387 469.028 456.715 469.476C456.075 469.924 455.755 470.548 455.755 471.348C455.755 472.244 456.203 472.932 457.099 473.412C457.995 473.86 459.387 474.324 461.275 474.804C463.195 475.284 464.779 475.78 466.027 476.292C467.275 476.804 468.347 477.604 469.243 478.692C470.171 479.748 470.651 481.156 470.683 482.916C470.683 484.452 470.251 485.828 469.387 487.044C468.555 488.26 467.339 489.22 465.739 489.924C464.171 490.596 462.331 490.932 460.219 490.932Z" fill="#DCCCBF"/>
<path d="M315.731 544.752C314.051 544.752 312.539 544.464 311.195 543.888C309.851 543.288 308.795 542.448 308.027 541.368C307.259 540.288 306.875 539.028 306.875 537.588H311.267C311.363 538.668 311.783 539.556 312.527 540.252C313.295 540.948 314.363 541.296 315.731 541.296C317.147 541.296 318.251 540.96 319.043 540.288C319.835 539.592 320.231 538.704 320.231 537.624C320.231 536.784 319.979 536.1 319.475 535.572C318.995 535.044 318.383 534.636 317.639 534.348C316.919 534.06 315.911 533.748 314.615 533.412C312.983 532.98 311.651 532.548 310.619 532.116C309.611 531.66 308.747 530.964 308.027 530.028C307.307 529.092 306.947 527.844 306.947 526.284C306.947 524.844 307.307 523.584 308.027 522.504C308.747 521.424 309.755 520.596 311.051 520.02C312.347 519.444 313.847 519.156 315.551 519.156C317.975 519.156 319.955 519.768 321.491 520.992C323.051 522.192 323.915 523.848 324.083 525.96H319.547C319.475 525.048 319.043 524.268 318.251 523.62C317.459 522.972 316.415 522.648 315.119 522.648C313.943 522.648 312.983 522.948 312.239 523.548C311.495 524.148 311.123 525.012 311.123 526.14C311.123 526.908 311.351 527.544 311.807 528.048C312.287 528.528 312.887 528.912 313.607 529.2C314.327 529.488 315.311 529.8 316.559 530.136C318.215 530.592 319.559 531.048 320.591 531.504C321.647 531.96 322.535 532.668 323.255 533.628C323.999 534.564 324.371 535.824 324.371 537.408C324.371 538.68 324.023 539.88 323.327 541.008C322.655 542.136 321.659 543.048 320.339 543.744C319.043 544.416 317.507 544.752 315.731 544.752ZM336.917 527.58C337.613 526.668 338.561 525.9 339.761 525.276C340.961 524.652 342.317 524.34 343.829 524.34C345.557 524.34 347.129 524.772 348.545 525.636C349.985 526.476 351.113 527.664 351.929 529.2C352.745 530.736 353.153 532.5 353.153 534.492C353.153 536.484 352.745 538.272 351.929 539.856C351.113 541.416 349.985 542.64 348.545 543.528C347.129 544.392 345.557 544.824 343.829 544.824C342.317 544.824 340.973 544.524 339.797 543.924C338.621 543.3 337.661 542.532 336.917 541.62V553.932H332.813V524.664H336.917V527.58ZM348.977 534.492C348.977 533.124 348.689 531.948 348.113 530.964C347.561 529.956 346.817 529.2 345.881 528.696C344.969 528.168 343.985 527.904 342.929 527.904C341.897 527.904 340.913 528.168 339.977 528.696C339.065 529.224 338.321 529.992 337.745 531C337.193 532.008 336.917 533.196 336.917 534.564C336.917 535.932 337.193 537.132 337.745 538.164C338.321 539.172 339.065 539.94 339.977 540.468C340.913 540.996 341.897 541.26 342.929 541.26C343.985 541.26 344.969 540.996 345.881 540.468C346.817 539.916 347.561 539.124 348.113 538.092C348.689 537.06 348.977 535.86 348.977 534.492ZM375.896 539.388H365.42L363.62 544.5H359.336L368.3 519.444H373.052L382.016 544.5H377.696L375.896 539.388ZM374.744 536.04L370.676 524.412L366.572 536.04H374.744Z" fill="#DCCCBF"/>
<defs>
<filter id="filter0_d_132_97" x="94.9999" y="147.5" width="393" height="216.461" filterUnits="userSpaceOnUse" color-interpolation-filters="sRGB">
<feFlood flood-opacity="0" result="BackgroundImageFix"/>
<feColorMatrix in="SourceAlpha" type="matrix" values="0 0 0 0 0 0 0 0 0 0 0 0 0 0 0 0 0 0 127 0" result="hardAlpha"/>
<feOffset dx="9" dy="4"/>
<feGaussianBlur stdDeviation="10"/>
<feComposite in2="hardAlpha" operator="out"/>
<feColorMatrix type="matrix" values="0 0 0 0 0 0 0 0 0 0 0 0 0 0 0 0 0 0 0.25 0"/>
<feBlend mode="normal" in2="BackgroundImageFix" result="effect1_dropShadow_132_97"/>
<feBlend mode="normal" in="SourceGraphic" in2="effect1_dropShadow_132_97" result="shape"/>
</filter>
</defs>
</svg>
