<svg width="325" height="163" viewBox="0 0 325 163" fill="none" xmlns="http://www.w3.org/2000/svg">
<path d="M52.0184 109.561C52.0184 114.9 47.6903 119.228 42.3513 119.228C37.0123 119.228 32.6841 114.9 32.6841 109.561C32.6841 104.222 37.0123 99.8938 42.3513 99.8938C47.6903 99.8938 52.0184 104.222 52.0184 109.561Z" fill="#EFDBCB"/>
<path d="M52.0184 109.561C52.0184 114.9 47.6903 119.228 42.3513 119.228C37.0123 119.228 32.6841 114.9 32.6841 109.561C32.6841 104.222 37.0123 99.8938 42.3513 99.8938C47.6903 99.8938 52.0184 104.222 52.0184 109.561Z" fill="#8F8F8F" fill-opacity="0.2"/>
<path d="M177.691 0C135.8 108.64 63.0666 168.024 0 156.516C57.0176 180.294 125.212 131.657 176.771 30.8428V117.847C177.189 126.739 174.933 129.317 165.722 128.895H147.309V139.023H231.091V128.895H213.645C212.456 128.95 211.39 128.952 210.434 128.895C203.979 128.514 202.55 125.465 202.55 117.847L202.55 80.0991L225.567 107.72L275.283 46.034V119.688C275.33 127.118 273.352 129.264 266.077 129.356H253.647V139.023H325V129.356H313.032C305.756 129.264 303.778 127.118 303.825 119.688C303.365 85.3163 302.904 19.7946 302.904 16.5722C302.904 13.3499 307.047 8.28612 312.11 8.28612H325V0H282.649L226.948 74.5751L201.629 44.1926V17.4929C201.629 15.1912 202.55 9.2068 208.534 9.2068H223.725V0H177.691Z" fill="#EFDBCB"/>
<path d="M177.691 0C135.8 108.64 63.0666 168.024 0 156.516C57.0176 180.294 125.212 131.657 176.771 30.8428V117.847C177.189 126.739 174.933 129.317 165.722 128.895H147.309V139.023H231.091V128.895H213.645C212.456 128.95 211.39 128.952 210.434 128.895C203.979 128.514 202.55 125.465 202.55 117.847L202.55 80.0991L225.567 107.72L275.283 46.034V119.688C275.33 127.118 273.352 129.264 266.077 129.356H253.647V139.023H325V129.356H313.032C305.756 129.264 303.778 127.118 303.825 119.688C303.365 85.3163 302.904 19.7946 302.904 16.5722C302.904 13.3499 307.047 8.28612 312.11 8.28612H325V0H282.649L226.948 74.5751L201.629 44.1926V17.4929C201.629 15.1912 202.55 9.2068 208.534 9.2068H223.725V0H177.691Z" fill="#8F8F8F" fill-opacity="0.2"/>
</svg>
