<svg width="516" height="353" viewBox="0 0 516 353" fill="none" xmlns="http://www.w3.org/2000/svg">
<g clip-path="url(#clip0_132_31)">
<path d="M435.674 245.185C435.139 244.608 434.741 243.924 434.506 243.181C434.272 242.438 434.207 241.654 434.317 240.884C434.427 240.113 434.708 239.376 435.141 238.724C435.574 238.071 436.148 237.519 436.824 237.107L432.504 218.682L441.926 222.123L444.583 239.092C445.218 240.246 445.397 241.586 445.086 242.86C444.776 244.133 443.998 245.252 442.9 246.003C441.802 246.754 440.46 247.085 439.128 246.934C437.796 246.784 436.567 246.161 435.674 245.185Z" fill="#FFB8B8"/>
<path d="M435.022 230.562L426.739 214.926L427.859 175.556L428.391 176.651C429.011 177.927 443.544 207.966 442.507 218.022L444.169 227.212L435.022 230.562Z" fill="#3F3D56"/>
<path d="M429.621 346.111H436.263L439.422 321.098L429.62 321.099L429.621 346.111Z" fill="#FFB8B8"/>
<path d="M427.927 343.994L441.006 343.993H441.007C443.218 343.993 445.338 344.851 446.901 346.377C448.464 347.903 449.342 349.973 449.342 352.131V352.396L427.928 352.397L427.927 343.994Z" fill="#2F2E41"/>
<path d="M364 341.182L370.399 342.919L380.307 319.648L370.863 317.084L364 341.182Z" fill="#FFB8B8"/>
<path d="M362.949 338.7L375.55 342.121L375.551 342.121C377.681 342.699 379.488 344.08 380.575 345.959C381.662 347.839 381.94 350.063 381.348 352.142L381.275 352.397L360.644 346.796L362.949 338.7Z" fill="#2F2E41"/>
<path d="M423 336.36L409.596 242.655L380.646 335.83L357.884 328.241L390.508 203.477L390.723 203.462L424.9 201.141L449.592 328.787L423 336.36Z" fill="#2F2E41"/>
<path d="M419.455 159.321C419.455 159.321 406.995 152.974 390.202 155.618C390.202 155.618 381.264 176.674 390.202 185.056L392.64 206.132C392.64 206.132 415.392 219.355 422.976 204.016L421.893 186.561C421.893 186.561 427.31 178.19 422.976 172.061C420.378 168.317 419.139 163.832 419.455 159.321Z" fill="#925B64"/>
<path d="M421.033 255.187L423.22 210.879L417.031 158.169L417.315 158.127C425.434 156.932 428.038 170.589 428.145 171.171L442.276 249.183L421.033 255.187Z" fill="#3F3D56"/>
<path d="M393.482 255.649L368.5 252.938L368.506 252.672C368.595 249.06 370.745 164.155 376.77 158.142C382.831 152.093 394.268 154.71 394.752 154.825L394.993 154.882L392.937 190.809L393.482 255.649Z" fill="#3F3D56"/>
<path d="M398.083 204.903C397.327 205.145 396.525 205.223 395.734 205.13C394.943 205.037 394.183 204.776 393.507 204.365C392.831 203.954 392.255 203.404 391.82 202.752C391.386 202.101 391.103 201.364 390.991 200.594L371.994 196.96L379.043 189.953L396.003 194.478C397.34 194.381 398.667 194.766 399.733 195.56C400.798 196.355 401.529 197.503 401.785 198.788C402.042 200.073 401.806 201.405 401.124 202.532C400.442 203.659 399.36 204.503 398.083 204.903Z" fill="#FFB8B8"/>
<path d="M387.946 200.649L381.756 199.35C372.618 202.033 356.667 192.586 350.22 188.39C349.007 187.601 348.614 186.036 349.051 183.741C349.696 180.531 351.508 177.657 354.154 175.649L376.858 158.071L382.589 157.135L384.291 166.554L369.825 181.724L391.12 193.042L387.946 200.649Z" fill="#3F3D56"/>
<path d="M385.498 147.645V135.432C385.498 130.265 387.6 125.31 391.342 121.656C395.084 118.002 400.159 115.95 405.451 115.95C410.743 115.95 415.818 118.002 419.56 121.656C423.302 125.31 425.404 130.265 425.404 135.432V147.645C425.403 148.339 425.12 149.004 424.618 149.495C424.115 149.985 423.434 150.261 422.724 150.262H388.178C387.467 150.261 386.786 149.985 386.283 149.495C385.781 149.004 385.498 148.339 385.498 147.645Z" fill="#2F2E41"/>
<path d="M404.649 150.142C412.728 150.142 419.278 143.747 419.278 135.858C419.278 127.969 412.728 121.574 404.649 121.574C396.569 121.574 390.02 127.969 390.02 135.858C390.02 143.747 396.569 150.142 404.649 150.142Z" fill="#FFB8B8"/>
<path d="M389.618 135.803C389.479 135.645 389.375 135.46 389.315 135.26C389.255 135.06 389.239 134.85 389.27 134.644L391.003 122.861C391.037 122.622 391.132 122.394 391.279 122.199C391.426 122.004 391.621 121.848 391.845 121.745C400.69 117.703 409.66 117.698 418.505 121.73C418.74 121.839 418.941 122.005 419.091 122.212C419.24 122.42 419.331 122.662 419.356 122.914L420.513 134.712C420.533 134.913 420.509 135.117 420.443 135.309C420.378 135.502 420.272 135.678 420.132 135.828C419.993 135.978 419.823 136.098 419.633 136.18C419.443 136.262 419.238 136.304 419.03 136.304H416.097C415.813 136.304 415.536 136.224 415.297 136.076C415.059 135.927 414.868 135.716 414.747 135.465L413.481 132.817C413.399 132.645 413.262 132.504 413.091 132.415C412.92 132.326 412.724 132.294 412.533 132.324C412.341 132.353 412.165 132.442 412.03 132.578C411.895 132.714 411.809 132.889 411.785 133.077L411.535 135.03C411.49 135.382 411.314 135.705 411.042 135.94C410.771 136.174 410.42 136.304 410.057 136.304H390.744C390.53 136.304 390.319 136.26 390.125 136.173C389.931 136.086 389.758 135.96 389.618 135.803Z" fill="#2F2E41"/>
<path d="M328.184 24.021H-0.000427246V223.563H328.184V24.021Z" fill="#54666E"/>
<path d="M328.184 24.021H-0.000427246V223.563H328.184V24.021Z" fill="#8F8F8F" fill-opacity="0.2"/>
<path d="M82.1139 62.4619H22.0069V100.61H82.1139V62.4619Z" fill="white"/>
<path d="M156.801 62.4619H96.6944V100.61H156.801V62.4619Z" fill="white"/>
<path d="M231.489 62.4619H171.382V100.61H231.489V62.4619Z" fill="white"/>
<path d="M306.176 62.4619H246.069V100.61H306.176V62.4619Z" fill="white"/>
<path d="M82.1139 116.456H22.0069V154.604H82.1139V116.456Z" fill="white"/>
<path d="M156.801 116.456H96.6944V154.604H156.801V116.456Z" fill="white"/>
<path d="M231.489 116.456H171.382V154.604H231.489V116.456Z" fill="white"/>
<path d="M306.176 116.456H246.069V154.604H306.176V116.456Z" fill="white"/>
<path d="M82.1139 170.45H22.0069V208.597H82.1139V170.45Z" fill="white"/>
<path d="M156.801 170.45H96.6944V208.597H156.801V170.45Z" fill="white"/>
<path d="M231.489 170.45H171.382V208.597H231.489V170.45Z" fill="white"/>
<path d="M306.176 170.45H246.069V208.597H306.176V170.45Z" fill="white"/>
<path d="M85.9526 47.4963C90.932 47.4963 94.9686 43.5549 94.9686 38.693C94.9686 33.831 90.932 29.8896 85.9526 29.8896C80.9731 29.8896 76.9365 33.831 76.9365 38.693C76.9365 43.5549 80.9731 47.4963 85.9526 47.4963Z" fill="white"/>
<path d="M235.018 47.4963C239.997 47.4963 244.034 43.5549 244.034 38.693C244.034 33.831 239.997 29.8896 235.018 29.8896C230.038 29.8896 226.002 33.831 226.002 38.693C226.002 43.5549 230.038 47.4963 235.018 47.4963Z" fill="white"/>
<path d="M89.559 0.54541H82.3461V41.0407H89.559V0.54541Z" fill="#E6E6E6"/>
<path d="M238.624 0.54541H231.411V41.0407H238.624V0.54541Z" fill="#E6E6E6"/>
<path d="M289.715 81.536C289.712 84.7231 288.531 87.8021 286.389 90.2072C284.248 92.6123 281.289 94.1819 278.057 94.6277C274.825 95.0735 271.537 94.3655 268.796 92.6338C266.056 90.9021 264.048 88.2631 263.141 85.2015C262.234 82.14 262.489 78.8616 263.859 75.9688C265.229 73.076 267.622 70.7631 270.598 69.455C273.575 68.147 276.935 67.9317 280.061 68.8487C283.187 69.7657 285.869 71.7534 287.615 74.4465C288.989 76.5674 289.718 79.0262 289.715 81.536Z" fill="#925B64"/>
<path d="M287.615 74.4465L274.235 87.5082C273.394 86.237 268.709 80.3294 268.709 80.3294C269.309 79.7369 269.95 79.1847 270.627 78.6765L274.512 83.7342L286.048 72.4702C286.633 73.0792 287.157 73.7409 287.615 74.4465Z" fill="white"/>
<path d="M140.34 135.53C140.337 138.717 139.156 141.796 137.015 144.201C134.873 146.606 131.914 148.176 128.682 148.621C125.45 149.067 122.162 148.359 119.422 146.627C116.681 144.896 114.673 142.257 113.766 139.195C112.859 136.134 113.114 132.855 114.484 129.962C115.854 127.07 118.247 124.757 121.223 123.449C124.2 122.141 127.56 121.925 130.686 122.842C133.812 123.759 136.494 125.747 138.24 128.44C139.614 130.561 140.343 133.02 140.34 135.53Z" fill="#925B64"/>
<path d="M138.24 128.44L124.86 141.502C124.019 140.231 119.334 134.323 119.334 134.323C119.934 133.731 120.575 133.178 121.252 132.67L125.137 137.728L136.673 126.464C137.258 127.073 137.782 127.735 138.24 128.44Z" fill="white"/>
<path d="M65.6528 135.53C65.6497 138.717 64.4688 141.796 62.327 144.201C60.1853 146.606 57.2266 148.176 53.9945 148.621C50.7625 149.067 47.4742 148.359 44.734 146.628C41.9937 144.896 39.9855 142.257 39.0783 139.195C38.1712 136.134 38.426 132.855 39.796 129.962C41.166 127.07 43.5592 124.757 46.5357 123.449C49.5123 122.141 52.8723 121.925 55.9984 122.842C59.1245 123.759 61.8067 125.747 63.5522 128.44C64.9267 130.561 65.6553 133.02 65.6528 135.53Z" fill="#925B64"/>
<path d="M63.5522 128.44L50.1723 141.502C49.3314 140.231 44.6464 134.323 44.6464 134.323C45.2468 133.731 45.8875 133.178 46.5642 132.67L50.4491 137.728L61.9854 126.464C62.5704 127.073 63.095 127.735 63.5522 128.44Z" fill="white"/>
<path d="M515.404 352.821H288.474C288.316 352.821 288.165 352.76 288.053 352.651C287.942 352.542 287.879 352.394 287.879 352.24C287.879 352.086 287.942 351.938 288.053 351.829C288.165 351.719 288.316 351.658 288.474 351.658H515.404C515.562 351.658 515.713 351.719 515.825 351.829C515.937 351.938 516 352.086 516 352.24C516 352.394 515.937 352.542 515.825 352.651C515.713 352.76 515.562 352.821 515.404 352.821Z" fill="#3F3D56"/>
</g>
<defs>
<clipPath id="clip0_132_31">
<rect width="516" height="352.276" fill="white" transform="translate(-0.000427246 0.54541)"/>
</clipPath>
</defs>
</svg>
