<svg width="594" height="473" viewBox="0 0 594 473" fill="none" xmlns="http://www.w3.org/2000/svg">
<g clip-path="url(#clip0_112_316)">
<path d="M157.661 108.721L86.9984 99.2923L101.298 26.8125L177.206 41.8142L157.661 108.721Z" fill="#2F2E41"/>
<path d="M89.7346 422.282V123.276C89.7346 117.857 94.1388 113.449 99.5531 113.449H584.181C589.595 113.449 594 117.857 594 123.276V422.282C594 427.7 589.595 432.109 584.181 432.109H99.5531C94.1388 432.109 89.7346 427.7 89.7346 422.282ZM592.221 123.276C592.221 118.832 588.622 115.229 584.181 115.229H99.5531C95.1128 115.229 91.5133 118.832 91.5133 123.276V422.282C91.5133 426.726 95.1128 430.329 99.5531 430.329H444.024C525.871 430.329 592.221 363.922 592.221 282.006V123.276Z" fill="#3F3D56"/>
<path d="M544.933 158.218L537.614 154.748C540.616 158.941 543.203 165.49 544.588 170.701C546.932 165.847 550.712 159.907 554.454 156.36L546.718 158.351C551.485 134.97 569.414 118.184 589.945 118.184L590.235 117.34C568.79 117.34 549.8 133.893 544.933 158.218Z" fill="#3F3D56"/>
<path d="M578.621 193.844H532.375C530.413 193.844 528.817 192.247 528.817 190.284C528.817 188.32 530.413 186.723 532.375 186.723H578.621C580.583 186.723 582.179 188.32 582.179 190.284C582.179 192.247 580.583 193.844 578.621 193.844Z" fill="#925B64"/>
<path d="M441.313 220.586V314.938C441.313 323.282 434.531 330.07 426.194 330.07H331.922C323.585 330.07 316.803 323.282 316.803 314.938V220.586C316.803 212.242 323.585 205.454 331.922 205.454H426.194C434.531 205.454 441.313 212.242 441.313 220.586ZM420.346 328.289C430.943 328.289 439.534 319.691 439.534 309.084V267.369C439.534 234.157 412.634 207.234 379.45 207.234H331.922C324.555 207.234 318.582 213.212 318.582 220.586V301.773C318.582 316.418 330.443 328.289 345.075 328.289H420.346Z" fill="#3F3D56"/>
<path d="M391.607 243.989H361.173C360.406 243.989 359.781 243.364 359.781 242.596C359.781 241.828 360.406 241.204 361.173 241.204H391.607C392.375 241.204 392.999 241.828 392.999 242.596C392.999 243.364 392.375 243.989 391.607 243.989Z" fill="#3F3D56"/>
<path d="M391.607 273.686H361.173C360.406 273.686 359.781 273.061 359.781 272.293C359.781 271.525 360.406 270.901 361.173 270.901H391.607C392.375 270.901 392.999 271.525 392.999 272.293C392.999 273.061 392.375 273.686 391.607 273.686Z" fill="#3F3D56"/>
<path d="M376.488 314.631H346.054C345.287 314.631 344.662 314.007 344.662 313.239C344.662 312.471 345.287 311.846 346.054 311.846H376.488C377.256 311.846 377.88 312.471 377.88 313.239C377.88 314.007 377.256 314.631 376.488 314.631Z" fill="#3F3D56"/>
<path d="M407.939 258.847H344.842C344.074 258.847 343.45 258.222 343.45 257.454C343.45 256.687 344.074 256.062 344.842 256.062H407.939C408.706 256.062 409.33 256.687 409.33 257.454C409.33 258.222 408.706 258.847 407.939 258.847Z" fill="#3F3D56"/>
<path d="M163.304 269.366H59.0043C67.7465 249.842 73.1211 231.247 64.7193 216.457L163.304 210.737C158.377 230.704 157.775 250.298 163.304 269.366Z" fill="#FFB6B6"/>
<path d="M199.225 432.109H122.548C121.993 432.109 121.488 431.792 121.245 431.292L120.779 430.329L110.589 409.395C109.933 408.047 107.914 408.462 107.842 409.96L106.86 430.329L106.84 430.732C106.801 431.503 106.166 432.109 105.394 432.109H29.8999C29.137 432.109 28.5046 431.515 28.4546 430.753C28.4453 430.611 28.4362 430.47 28.4277 430.329C23.6074 355.871 40.9409 305.401 51.1063 282.819L51.1152 282.81C55.1084 273.927 58.0077 269.361 58.0077 269.361L59.0127 269.352H59.0216L79.3255 268.996H79.3345L97.3173 268.693L110.907 268.471L116.358 268.373H116.367L119.782 268.319L136.76 268.026L151.924 267.767L162.81 267.589H163.112L164.731 274.577V274.586L164.793 274.897V274.906L165.069 276.054L165.077 276.09L165.629 278.502V278.52L165.664 278.653V278.662L165.798 279.241L165.807 279.268L167.087 284.813L169.16 293.83L171.89 305.624L175.332 320.596L177.075 328.135L179.467 338.522L200.634 430.329C200.847 431.238 200.158 432.109 199.225 432.109Z" fill="#2F2E41"/>
<path d="M148.246 95.4947L106.738 94.0452L90.3314 116.065L81.6983 117.942C68.7571 120.754 59.8796 132.7 60.9108 145.914L64.8325 237.459L66.6113 248.141L164.441 264.163L186.438 125.619L157.493 115.211L148.246 95.4947Z" fill="#925B64"/>
<path d="M133.098 92.0223C153.675 92.0223 170.356 75.3273 170.356 54.7331C170.356 34.1388 153.675 17.4438 133.098 17.4438C112.521 17.4438 95.8407 34.1388 95.8407 54.7331C95.8407 75.3273 112.521 92.0223 133.098 92.0223Z" fill="#FFB6B6"/>
<path d="M548.008 428.647L515.708 416.633C510.863 414.831 508.386 409.42 510.187 404.571L541.92 319.112C543.72 314.263 549.126 311.784 553.971 313.586L586.271 325.6C591.116 327.402 593.593 332.813 591.792 337.662C579.65 372.203 566.406 411.015 560.059 423.121C558.259 427.97 552.853 430.449 548.008 428.647Z" fill="#3F3D56"/>
<path d="M583.835 360.471C583.63 360.394 583.402 360.499 583.326 360.704L578.905 372.609C578.829 372.814 578.934 373.043 579.139 373.119C579.344 373.195 579.572 373.09 579.649 372.885L584.069 360.981C584.145 360.776 584.04 360.547 583.835 360.471Z" fill="#3F3D56"/>
<path d="M590.956 337.351L559.224 422.809C557.657 427.029 553.093 429.261 548.843 427.985L548.841 427.984C548.779 427.965 548.716 427.946 548.652 427.925C548.54 427.889 548.43 427.851 548.318 427.809C548.318 427.809 547.921 427.627 547.194 427.294C546.46 426.957 545.393 426.465 544.064 425.846C543.665 425.661 543.245 425.465 542.802 425.258C541.919 424.844 540.949 424.391 539.912 423.899C539.497 423.705 539.069 423.501 538.632 423.294C536.398 422.236 533.899 421.042 531.271 419.764C530.826 419.55 530.378 419.332 529.927 419.112C529.809 419.053 510.654 405.878 511.024 404.881L542.756 319.423C544.388 315.028 549.27 312.789 553.661 314.423L558.408 316.188C559.166 316.47 559.556 317.289 559.34 318.07C559.327 318.122 559.314 318.174 559.304 318.228C559.159 319.04 559.66 319.829 560.433 320.117L577.117 326.322C577.89 326.61 578.783 326.339 579.203 325.629C579.231 325.583 579.256 325.535 579.28 325.486C579.626 324.754 580.455 324.389 581.213 324.671L585.96 326.436C590.351 328.07 592.588 332.956 590.956 337.351Z" fill="#925B64"/>
<path d="M536.642 332.756C536.437 332.679 536.208 332.784 536.132 332.989L535.027 335.965C534.951 336.171 535.056 336.399 535.261 336.476C535.466 336.552 535.694 336.447 535.77 336.242L536.876 333.266C536.952 333.061 536.847 332.832 536.642 332.756Z" fill="#3F3D56"/>
<path d="M533.327 341.684C533.122 341.608 532.893 341.712 532.817 341.918L530.676 347.684C530.6 347.889 530.704 348.118 530.909 348.194C531.114 348.27 531.343 348.165 531.419 347.96L533.56 342.194C533.636 341.989 533.532 341.76 533.327 341.684Z" fill="#3F3D56"/>
<path d="M530.288 349.868C530.083 349.792 529.854 349.897 529.778 350.102L527.637 355.868C527.561 356.073 527.665 356.302 527.87 356.378C528.075 356.455 528.304 356.35 528.38 356.145L530.521 350.378C530.598 350.173 530.493 349.944 530.288 349.868Z" fill="#3F3D56"/>
<path d="M557.793 317.442L550.688 314.8C550.649 314.785 550.605 314.805 550.59 314.845L550.298 315.631C550.283 315.671 550.303 315.715 550.343 315.73L557.447 318.372C557.487 318.387 557.531 318.367 557.546 318.327L557.838 317.541C557.853 317.501 557.832 317.457 557.793 317.442Z" fill="#E6E6E6"/>
<path d="M581.835 327.39C582.273 327.39 582.628 327.035 582.628 326.596C582.628 326.158 582.273 325.803 581.835 325.803C581.397 325.803 581.042 326.158 581.042 326.596C581.042 327.035 581.397 327.39 581.835 327.39Z" fill="#E6E6E6"/>
<path d="M583.879 328.15C584.317 328.15 584.673 327.795 584.673 327.357C584.673 326.918 584.317 326.563 583.879 326.563C583.441 326.563 583.086 326.918 583.086 327.357C583.086 327.795 583.441 328.15 583.879 328.15Z" fill="#E6E6E6"/>
<path d="M585.924 328.911C586.362 328.911 586.717 328.556 586.717 328.117C586.717 327.679 586.362 327.323 585.924 327.323C585.486 327.323 585.131 327.679 585.131 328.117C585.131 328.556 585.486 328.911 585.924 328.911Z" fill="#E6E6E6"/>
<path d="M468.813 158.79H440.921C437.332 158.79 434.412 155.868 434.412 152.276V120.799C434.412 117.207 437.332 114.285 440.921 114.285H468.813C472.402 114.285 475.322 117.207 475.322 120.799V152.276C475.322 155.868 472.402 158.79 468.813 158.79Z" fill="white"/>
<path d="M468.813 158.79H440.921C437.332 158.79 434.412 155.868 434.412 152.276C433.009 140.685 432.623 129.891 434.412 120.799C434.412 117.207 437.332 114.285 440.921 114.285H468.813C472.402 114.285 475.322 117.207 475.322 120.799V152.276C475.322 155.868 472.402 158.79 468.813 158.79ZM440.921 115.175C437.822 115.175 435.301 117.698 435.301 120.799V152.276C435.301 155.377 437.822 157.9 440.921 157.9H468.813C471.912 157.9 474.433 155.377 474.433 152.276V120.799C474.433 117.698 471.912 115.175 468.813 115.175H440.921Z" fill="#3F3D56"/>
<path d="M465.995 133.422H443.013C442.038 133.422 441.245 132.628 441.245 131.653C441.245 130.677 442.038 129.884 443.013 129.884H465.995C466.97 129.884 467.763 130.677 467.763 131.653C467.763 132.628 466.97 133.422 465.995 133.422Z" fill="#925B64"/>
<path d="M465.995 143.213H443.013C442.038 143.213 441.245 142.42 441.245 141.444C441.245 140.469 442.038 139.675 443.013 139.675H465.995C466.97 139.675 467.763 140.469 467.763 141.444C467.763 142.42 466.97 143.213 465.995 143.213Z" fill="#925B64"/>
<path d="M465.995 123.631H443.013C442.038 123.631 441.245 122.837 441.245 121.862C441.245 120.886 442.038 120.092 443.013 120.092H465.995C466.97 120.092 467.763 120.886 467.763 121.862C467.763 122.837 466.97 123.631 465.995 123.631Z" fill="#925B64"/>
<path d="M120.43 103.631C122.472 107.483 125.213 110.554 128.12 112.541L145.252 150.465L163.045 141.778L143.75 104.243C143.736 100.72 142.733 96.7261 140.692 92.8741C136.028 84.0743 127.711 79.3488 122.116 82.3193C116.521 85.2898 115.766 94.8314 120.43 103.631Z" fill="#FFB6B6"/>
<path d="M159.008 127.535C159.008 127.535 185.103 113.849 193.199 128.219C200.107 140.48 205.099 201.833 206.415 219.58C206.646 222.696 205.834 225.789 204.106 228.391C198.989 236.094 187.957 236.829 181.865 229.871L128.988 125.669L154.07 113.738L160.204 128.608L159.008 127.535Z" fill="#925B64"/>
<path d="M214.798 274.334C215.371 273.522 215.708 272.531 215.708 271.461V180.141C215.708 177.386 213.476 175.152 210.723 175.152H72.8012C70.0478 175.152 67.8157 177.386 67.8157 180.141V271.461C67.8157 272.531 68.1534 273.522 68.7263 274.334H51.5007V279.121C111.39 282.474 171.564 282.474 232.023 279.121V274.334H214.798Z" fill="#3F3D56"/>
<path d="M362.98 473H335.088C331.498 473 328.578 470.078 328.578 466.485V435.009C328.578 431.417 331.498 428.494 335.088 428.494H362.98C366.569 428.494 369.489 431.417 369.489 435.009V466.485C369.489 470.078 366.569 473 362.98 473Z" fill="white"/>
<path d="M362.98 473H335.088C331.498 473 328.579 470.078 328.579 466.485C327.176 454.895 326.79 444.1 328.579 435.009C328.579 431.417 331.498 428.494 335.088 428.494H362.98C366.569 428.494 369.489 431.417 369.489 435.009V466.485C369.489 470.078 366.569 473 362.98 473ZM335.088 429.384C331.989 429.384 329.468 431.907 329.468 435.009V466.485C329.468 469.587 331.989 472.11 335.088 472.11H362.98C366.079 472.11 368.6 469.587 368.6 466.485V435.009C368.6 431.907 366.079 429.384 362.98 429.384H335.088Z" fill="#3F3D56"/>
<path d="M360.162 447.632H337.18C336.205 447.632 335.412 446.838 335.412 445.862C335.412 444.887 336.205 444.093 337.18 444.093H360.162C361.136 444.093 361.929 444.887 361.929 445.862C361.929 446.838 361.136 447.632 360.162 447.632Z" fill="#925B64"/>
<path d="M360.162 457.423H337.18C336.205 457.423 335.412 456.629 335.412 455.654C335.412 454.678 336.205 453.884 337.18 453.884H360.162C361.136 453.884 361.929 454.678 361.929 455.654C361.929 456.629 361.136 457.423 360.162 457.423Z" fill="#925B64"/>
<path d="M360.162 437.84H337.18C336.205 437.84 335.412 437.047 335.412 436.071C335.412 435.096 336.205 434.302 337.18 434.302H360.162C361.136 434.302 361.929 435.096 361.929 436.071C361.929 437.047 361.136 437.84 360.162 437.84Z" fill="#925B64"/>
<path d="M119.653 262.252C115.296 262.275 111.306 263.281 108.199 264.937L66.683 262.533L66.1179 282.338L108.293 282.644C111.417 284.266 115.418 285.23 119.774 285.207C129.727 285.154 137.768 279.973 137.734 273.634C137.701 267.295 129.605 262.199 119.653 262.252Z" fill="#FFB6B6"/>
<path d="M79.7657 118.01C79.7657 118.01 44.4739 114.074 35.4838 135.987C28.6162 152.726 10.7748 217.966 0.762993 255.318C-2.89737 268.974 7.05372 282.495 21.1694 283.054L83.5091 285.525L87.1148 257.924L42.5986 250.811L67.5006 176.042L79.7657 118.01Z" fill="#925B64"/>
<path d="M170.366 25.9453C172.157 16.8644 161.161 13.3375 152.927 9.12395L145.935 3.20579C138.606 -0.544579 130.036 -1.02684 122.333 1.87758L98.2918 9.88691C87.3795 14.0012 83.5718 23.7952 77.2836 33.6237L66.7431 47.7074C60.5529 57.3828 62.4035 72.488 63.8552 83.8847L64.4635 88.6603L58.6722 102.521L103.18 110.474L112.151 89.0833L106.552 78.9168C104.566 75.3096 105.361 70.8044 108.461 68.0962C119.615 58.3544 121.751 41.6347 121.751 41.6347L131.18 49.9567C138.032 52.5296 144.358 53.8562 150.165 53.957C156.553 54.0678 162.313 52.6957 167.459 49.868L168.365 63.6565C165.705 79.9567 161.735 83.541 143.851 96.0111L165.376 117.493L166.385 108.745C168.784 87.9358 179.152 73.4529 181.959 56.7104C183.9 45.1335 179.42 33.4075 170.366 25.9453Z" fill="#2F2E41"/>
</g>
<defs>
<clipPath id="clip0_112_316">
<rect width="594" height="473" fill="white"/>
</clipPath>
</defs>
</svg>
