<svg width="106" height="106" viewBox="0 0 106 106" fill="none" xmlns="http://www.w3.org/2000/svg">
<path d="M80.5057 37.6839L80.504 37.6856L54.8006 63.382C54.7984 63.3842 54.7963 63.3863 54.7942 63.3884C53.1976 64.9917 51.0982 65.7813 49.0291 65.7813C46.9527 65.7813 44.8537 64.993 43.2548 63.3863C40.0771 60.2013 40.0747 55.0425 43.2606 51.8579C43.2609 51.8576 43.2613 51.8572 43.2617 51.8568L68.9682 26.1526C68.9691 26.1518 68.9699 26.1509 68.9708 26.15M80.5057 37.6839L77.3963 34.577C78.8628 33.1093 78.8628 30.7284 77.3963 29.2583C75.9275 27.7895 73.5454 27.7895 72.0788 29.2583L68.9708 26.15M80.5057 37.6839C82.7158 35.4721 83.3895 32.308 82.5313 29.5145M80.5057 37.6839L77.139 24.1213M68.9708 26.15C71.1814 23.9379 74.3455 23.2631 77.139 24.1213M68.9708 26.15L77.139 24.1213M77.139 24.1213L79.836 26.8187L79.8389 26.8216L82.5313 29.5145M77.139 24.1213L72.3883 19.3697L34.194 57.56L49.096 72.457L87.283 34.267M77.139 24.1213L87.283 34.267M82.5313 29.5145L87.283 34.267M82.5313 29.5145L87.283 34.267M87.283 34.267L90.3907 31.1591L93.499 34.2671L75.4966 16.2617L87.283 34.267Z" fill="#6EC4A7"/>
<path d="M80.5057 37.6839L80.504 37.6856L54.8006 63.382C54.7984 63.3842 54.7963 63.3863 54.7942 63.3884C53.1976 64.9917 51.0982 65.7813 49.0291 65.7813C46.9527 65.7813 44.8537 64.993 43.2548 63.3863C40.0771 60.2013 40.0747 55.0425 43.2606 51.8579C43.2609 51.8576 43.2613 51.8572 43.2617 51.8568L68.9682 26.1526C68.9691 26.1518 68.9699 26.1509 68.9708 26.15M80.5057 37.6839L77.3963 34.577C78.8628 33.1093 78.8628 30.7284 77.3963 29.2583C75.9275 27.7895 73.5454 27.7895 72.0788 29.2583L68.9708 26.15M80.5057 37.6839C82.7158 35.4721 83.3895 32.308 82.5313 29.5145M80.5057 37.6839L77.139 24.1213M68.9708 26.15C71.1814 23.9379 74.3455 23.2631 77.139 24.1213M68.9708 26.15L77.139 24.1213M77.139 24.1213L79.836 26.8187L79.8389 26.8216L82.5313 29.5145M77.139 24.1213L72.3883 19.3697L34.194 57.56L49.096 72.457L87.283 34.267M77.139 24.1213L87.283 34.267M82.5313 29.5145L87.283 34.267M82.5313 29.5145L87.283 34.267M87.283 34.267L90.3907 31.1591L93.499 34.2671L75.4966 16.2617L87.283 34.267Z" stroke="#AACCBB" stroke-width="8.79121"/>
<path d="M80.5057 37.6839L80.504 37.6856L54.8006 63.382C54.7984 63.3842 54.7963 63.3863 54.7942 63.3884C53.1976 64.9917 51.0982 65.7813 49.0291 65.7813C46.9527 65.7813 44.8537 64.993 43.2548 63.3863C40.0771 60.2013 40.0747 55.0425 43.2606 51.8579C43.2609 51.8576 43.2613 51.8572 43.2617 51.8568L68.9682 26.1526C68.9691 26.1518 68.9699 26.1509 68.9708 26.15M80.5057 37.6839L77.3963 34.577C78.8628 33.1093 78.8628 30.7284 77.3963 29.2583C75.9275 27.7895 73.5454 27.7895 72.0788 29.2583L68.9708 26.15M80.5057 37.6839C82.7158 35.4721 83.3895 32.308 82.5313 29.5145M80.5057 37.6839L77.139 24.1213M68.9708 26.15C71.1814 23.9379 74.3455 23.2631 77.139 24.1213M68.9708 26.15L77.139 24.1213M77.139 24.1213L79.836 26.8187L79.8389 26.8216L82.5313 29.5145M77.139 24.1213L72.3883 19.3697L34.194 57.56L49.096 72.457L87.283 34.267M77.139 24.1213L87.283 34.267M82.5313 29.5145L87.283 34.267M82.5313 29.5145L87.283 34.267M87.283 34.267L90.3907 31.1591L93.499 34.2671L75.4966 16.2617L87.283 34.267Z" stroke="#8F8F8F" stroke-opacity="0.2" stroke-width="8.79121"/>
<path d="M24.5245 81.8976L26.852 73.29L33.221 79.659L24.5245 81.8976Z" fill="#65B794"/>
<path d="M24.5245 81.8976L26.852 73.29L33.221 79.659L24.5245 81.8976Z" stroke="#AACCBB" stroke-width="8.79121"/>
<path d="M24.5245 81.8976L26.852 73.29L33.221 79.659L24.5245 81.8976Z" stroke="#8F8F8F" stroke-opacity="0.2" stroke-width="8.79121"/>
<path d="M98.8172 22.7338L83.9177 7.83838L84.0624 7.69359L84.0649 7.69108C85.3027 6.45083 87.6943 6.44355 88.9472 7.69491C88.9473 7.69506 88.9475 7.69521 88.9476 7.69536L98.9541 17.7053C100.293 19.0462 100.297 21.2485 98.9531 22.5978C98.9527 22.5983 98.9522 22.5988 98.9517 22.5993L98.8172 22.7338Z" fill="#65B794"/>
<path d="M98.8172 22.7338L83.9177 7.83838L84.0624 7.69359L84.0649 7.69108C85.3027 6.45083 87.6943 6.44355 88.9472 7.69491C88.9473 7.69506 88.9475 7.69521 88.9476 7.69536L98.9541 17.7053C100.293 19.0462 100.297 21.2485 98.9531 22.5978C98.9527 22.5983 98.9522 22.5988 98.9517 22.5993L98.8172 22.7338Z" stroke="#AACCBB" stroke-width="8.79121"/>
<path d="M98.8172 22.7338L83.9177 7.83838L84.0624 7.69359L84.0649 7.69108C85.3027 6.45083 87.6943 6.44355 88.9472 7.69491C88.9473 7.69506 88.9475 7.69521 88.9476 7.69536L98.9541 17.7053C100.293 19.0462 100.297 21.2485 98.9531 22.5978C98.9527 22.5983 98.9522 22.5988 98.9517 22.5993L98.8172 22.7338Z" stroke="#8F8F8F" stroke-opacity="0.2" stroke-width="8.79121"/>
<path d="M92.7034 104.316H4.03149C1.89635 104.316 0.166569 102.585 0.166569 100.45V6.42059C0.166569 4.28544 1.89518 2.55566 4.03149 2.55566H63.5697C65.7072 2.55566 67.4335 4.28544 67.4335 6.42059C67.4335 8.55457 65.7072 10.2855 63.5697 10.2855H7.89641V96.5835H92.7034C95.7227 96.5835 98.1793 94.128 98.1793 91.1076V42.619C98.1793 40.4839 99.9079 38.7541 102.043 38.7541C104.177 38.7541 105.908 40.4839 105.908 42.619V91.1076C105.909 98.3901 99.9848 104.316 92.7034 104.316Z" fill="#446F8B"/>
<path d="M92.7034 104.316H4.03149C1.89635 104.316 0.166569 102.585 0.166569 100.45V6.42059C0.166569 4.28544 1.89518 2.55566 4.03149 2.55566H63.5697C65.7072 2.55566 67.4335 4.28544 67.4335 6.42059C67.4335 8.55457 65.7072 10.2855 63.5697 10.2855H7.89641V96.5835H92.7034C95.7227 96.5835 98.1793 94.128 98.1793 91.1076V42.619C98.1793 40.4839 99.9079 38.7541 102.043 38.7541C104.177 38.7541 105.908 40.4839 105.908 42.619V91.1076C105.909 98.3901 99.9848 104.316 92.7034 104.316Z" fill="#8F8F8F" fill-opacity="0.2"/>
</svg>
