<svg width="688" height="223" viewBox="0 0 688 223" fill="none" xmlns="http://www.w3.org/2000/svg">
<path d="M109.251 19.996V43.516C109.251 46.78 108.307 49.324 106.419 51.148C104.531 52.94 102.003 53.836 98.8351 53.836C95.6351 53.836 93.0431 52.908 91.0591 51.052C89.1071 49.196 88.1311 46.604 88.1311 43.276H94.8511C94.8831 44.716 95.2191 45.836 95.8591 46.636C96.5311 47.436 97.4911 47.836 98.7391 47.836C99.9551 47.836 100.883 47.452 101.523 46.684C102.163 45.916 102.483 44.86 102.483 43.516V19.996H109.251ZM158.418 19.996V53.5H151.698V31.708L142.722 53.5H137.634L128.61 31.708V53.5H121.89V19.996H129.522L140.178 44.908L150.834 19.996H158.418ZM184.468 36.7C184.468 33.404 185.204 30.46 186.676 27.868C188.18 25.244 190.212 23.212 192.772 21.772C195.364 20.3 198.26 19.564 201.46 19.564C205.204 19.564 208.484 20.524 211.3 22.444C214.116 24.364 216.084 27.02 217.204 30.412H209.476C208.708 28.812 207.62 27.612 206.212 26.812C204.836 26.012 203.236 25.612 201.412 25.612C199.46 25.612 197.716 26.076 196.18 27.004C194.676 27.9 193.492 29.18 192.628 30.844C191.796 32.508 191.38 34.46 191.38 36.7C191.38 38.908 191.796 40.86 192.628 42.556C193.492 44.22 194.676 45.516 196.18 46.444C197.716 47.34 199.46 47.788 201.412 47.788C203.236 47.788 204.836 47.388 206.212 46.588C207.62 45.756 208.708 44.54 209.476 42.94H217.204C216.084 46.364 214.116 49.036 211.3 50.956C208.516 52.844 205.236 53.788 201.46 53.788C198.26 53.788 195.364 53.068 192.772 51.628C190.212 50.156 188.18 48.124 186.676 45.532C185.204 42.94 184.468 39.996 184.468 36.7ZM239.551 53.932C236.991 53.932 234.687 53.372 232.639 52.252C230.591 51.1 228.975 49.484 227.791 47.404C226.639 45.324 226.063 42.924 226.063 40.204C226.063 37.484 226.655 35.084 227.839 33.004C229.055 30.924 230.703 29.324 232.783 28.204C234.863 27.052 237.183 26.476 239.743 26.476C242.303 26.476 244.623 27.052 246.703 28.204C248.783 29.324 250.415 30.924 251.599 33.004C252.815 35.084 253.423 37.484 253.423 40.204C253.423 42.924 252.799 45.324 251.551 47.404C250.335 49.484 248.671 51.1 246.559 52.252C244.479 53.372 242.143 53.932 239.551 53.932ZM239.551 48.076C240.767 48.076 241.903 47.788 242.959 47.212C244.047 46.604 244.911 45.708 245.551 44.524C246.191 43.34 246.511 41.9 246.511 40.204C246.511 37.676 245.839 35.74 244.495 34.396C243.183 33.02 241.567 32.332 239.647 32.332C237.727 32.332 236.111 33.02 234.799 34.396C233.519 35.74 232.879 37.676 232.879 40.204C232.879 42.732 233.503 44.684 234.751 46.06C236.031 47.404 237.631 48.076 239.551 48.076ZM277.889 26.524C281.057 26.524 283.617 27.532 285.569 29.548C287.521 31.532 288.497 34.316 288.497 37.9V53.5H281.777V38.812C281.777 36.7 281.249 35.084 280.193 33.964C279.137 32.812 277.697 32.236 275.873 32.236C274.017 32.236 272.545 32.812 271.457 33.964C270.401 35.084 269.873 36.7 269.873 38.812V53.5H263.153V26.908H269.873V30.22C270.769 29.068 271.905 28.172 273.281 27.532C274.689 26.86 276.225 26.524 277.889 26.524ZM309.863 53.932C307.687 53.932 305.735 53.548 304.007 52.78C302.279 51.98 300.903 50.908 299.879 49.564C298.887 48.22 298.343 46.732 298.247 45.1H305.015C305.143 46.124 305.639 46.972 306.503 47.644C307.399 48.316 308.503 48.652 309.815 48.652C311.095 48.652 312.087 48.396 312.791 47.884C313.527 47.372 313.895 46.716 313.895 45.916C313.895 45.052 313.447 44.412 312.551 43.996C311.687 43.548 310.295 43.068 308.375 42.556C306.391 42.076 304.759 41.58 303.479 41.068C302.231 40.556 301.143 39.772 300.215 38.716C299.319 37.66 298.871 36.236 298.871 34.444C298.871 32.972 299.287 31.628 300.119 30.412C300.983 29.196 302.199 28.236 303.767 27.532C305.367 26.828 307.239 26.476 309.383 26.476C312.551 26.476 315.079 27.276 316.967 28.876C318.855 30.444 319.895 32.572 320.087 35.26H313.655C313.559 34.204 313.111 33.372 312.311 32.764C311.543 32.124 310.503 31.804 309.191 31.804C307.975 31.804 307.031 32.028 306.359 32.476C305.719 32.924 305.399 33.548 305.399 34.348C305.399 35.244 305.847 35.932 306.743 36.412C307.639 36.86 309.031 37.324 310.919 37.804C312.839 38.284 314.423 38.78 315.671 39.292C316.919 39.804 317.991 40.604 318.887 41.692C319.815 42.748 320.295 44.156 320.327 45.916C320.327 47.452 319.895 48.828 319.031 50.044C318.199 51.26 316.983 52.22 315.383 52.924C313.815 53.596 311.975 53.932 309.863 53.932ZM355.747 26.908V53.5H348.979V50.14C348.115 51.292 346.979 52.204 345.571 52.876C344.195 53.516 342.691 53.836 341.059 53.836C338.979 53.836 337.139 53.404 335.539 52.54C333.939 51.644 332.675 50.348 331.747 48.652C330.851 46.924 330.403 44.876 330.403 42.508V26.908H337.123V41.548C337.123 43.66 337.651 45.292 338.707 46.444C339.763 47.564 341.203 48.124 343.027 48.124C344.883 48.124 346.339 47.564 347.395 46.444C348.451 45.292 348.979 43.66 348.979 41.548V26.908H355.747ZM373.898 17.98V53.5H367.178V17.98H373.898ZM393.161 32.428V45.292C393.161 46.188 393.369 46.844 393.785 47.26C394.233 47.644 394.969 47.836 395.993 47.836H399.113V53.5H394.889C389.225 53.5 386.393 50.748 386.393 45.244V32.428H383.225V26.908H386.393V20.332H393.161V26.908H399.113V32.428H393.161ZM420.554 53.932C417.994 53.932 415.69 53.372 413.642 52.252C411.594 51.1 409.978 49.484 408.794 47.404C407.642 45.324 407.066 42.924 407.066 40.204C407.066 37.484 407.658 35.084 408.842 33.004C410.058 30.924 411.706 29.324 413.786 28.204C415.866 27.052 418.186 26.476 420.746 26.476C423.306 26.476 425.626 27.052 427.706 28.204C429.786 29.324 431.418 30.924 432.602 33.004C433.818 35.084 434.426 37.484 434.426 40.204C434.426 42.924 433.802 45.324 432.554 47.404C431.338 49.484 429.674 51.1 427.562 52.252C425.482 53.372 423.146 53.932 420.554 53.932ZM420.554 48.076C421.77 48.076 422.906 47.788 423.962 47.212C425.05 46.604 425.914 45.708 426.554 44.524C427.194 43.34 427.514 41.9 427.514 40.204C427.514 37.676 426.842 35.74 425.498 34.396C424.186 33.02 422.57 32.332 420.65 32.332C418.73 32.332 417.114 33.02 415.802 34.396C414.522 35.74 413.882 37.676 413.882 40.204C413.882 42.732 414.506 44.684 415.754 46.06C417.034 47.404 418.634 48.076 420.554 48.076ZM450.876 31.036C451.74 29.628 452.86 28.524 454.236 27.724C455.644 26.924 457.244 26.524 459.036 26.524V33.58H457.26C455.148 33.58 453.548 34.076 452.46 35.068C451.404 36.06 450.876 37.788 450.876 40.252V53.5H444.156V26.908H450.876V31.036ZM471.77 23.74C470.586 23.74 469.594 23.372 468.794 22.636C468.026 21.868 467.642 20.924 467.642 19.804C467.642 18.684 468.026 17.756 468.794 17.02C469.594 16.252 470.586 15.868 471.77 15.868C472.954 15.868 473.93 16.252 474.698 17.02C475.498 17.756 475.898 18.684 475.898 19.804C475.898 20.924 475.498 21.868 474.698 22.636C473.93 23.372 472.954 23.74 471.77 23.74ZM475.082 26.908V53.5H468.362V26.908H475.082ZM484.793 40.108C484.793 37.42 485.321 35.036 486.377 32.956C487.465 30.876 488.921 29.276 490.745 28.156C492.601 27.036 494.665 26.476 496.937 26.476C498.921 26.476 500.649 26.876 502.121 27.676C503.625 28.476 504.825 29.484 505.721 30.7V26.908H512.489V53.5H505.721V49.612C504.857 50.86 503.657 51.9 502.121 52.732C500.617 53.532 498.873 53.932 496.889 53.932C494.649 53.932 492.601 53.356 490.745 52.204C488.921 51.052 487.465 49.436 486.377 47.356C485.321 45.244 484.793 42.828 484.793 40.108ZM505.721 40.204C505.721 38.572 505.401 37.18 504.761 36.028C504.121 34.844 503.257 33.948 502.169 33.34C501.081 32.7 499.913 32.38 498.665 32.38C497.417 32.38 496.265 32.684 495.209 33.292C494.153 33.9 493.289 34.796 492.617 35.98C491.977 37.132 491.657 38.508 491.657 40.108C491.657 41.708 491.977 43.116 492.617 44.332C493.289 45.516 494.153 46.428 495.209 47.068C496.297 47.708 497.449 48.028 498.665 48.028C499.913 48.028 501.081 47.724 502.169 47.116C503.257 46.476 504.121 45.58 504.761 44.428C505.401 43.244 505.721 41.836 505.721 40.204ZM534.029 53.932C531.853 53.932 529.901 53.548 528.173 52.78C526.445 51.98 525.069 50.908 524.045 49.564C523.053 48.22 522.509 46.732 522.413 45.1H529.181C529.309 46.124 529.805 46.972 530.669 47.644C531.565 48.316 532.669 48.652 533.981 48.652C535.261 48.652 536.253 48.396 536.957 47.884C537.693 47.372 538.061 46.716 538.061 45.916C538.061 45.052 537.613 44.412 536.717 43.996C535.853 43.548 534.461 43.068 532.541 42.556C530.557 42.076 528.925 41.58 527.645 41.068C526.397 40.556 525.309 39.772 524.381 38.716C523.485 37.66 523.037 36.236 523.037 34.444C523.037 32.972 523.453 31.628 524.285 30.412C525.149 29.196 526.365 28.236 527.933 27.532C529.533 26.828 531.405 26.476 533.549 26.476C536.717 26.476 539.245 27.276 541.133 28.876C543.021 30.444 544.061 32.572 544.253 35.26H537.821C537.725 34.204 537.277 33.372 536.477 32.764C535.709 32.124 534.669 31.804 533.357 31.804C532.141 31.804 531.197 32.028 530.525 32.476C529.885 32.924 529.565 33.548 529.565 34.348C529.565 35.244 530.013 35.932 530.909 36.412C531.805 36.86 533.197 37.324 535.085 37.804C537.005 38.284 538.589 38.78 539.837 39.292C541.085 39.804 542.157 40.604 543.053 41.692C543.981 42.748 544.461 44.156 544.493 45.916C544.493 47.452 544.061 48.828 543.197 50.044C542.365 51.26 541.149 52.22 539.549 52.924C537.981 53.596 536.141 53.932 534.029 53.932ZM596.486 26.908L580.022 66.076H572.87L578.63 52.828L567.974 26.908H575.51L582.374 45.484L589.334 26.908H596.486ZM229.993 125.836C227.657 125.836 225.545 125.436 223.657 124.636C221.801 123.836 220.329 122.684 219.241 121.18C218.153 119.676 217.593 117.9 217.561 115.852H224.761C224.857 117.228 225.337 118.316 226.201 119.116C227.097 119.916 228.313 120.316 229.849 120.316C231.417 120.316 232.649 119.948 233.545 119.212C234.441 118.444 234.889 117.452 234.889 116.236C234.889 115.244 234.585 114.428 233.977 113.788C233.369 113.148 232.601 112.652 231.673 112.3C230.777 111.916 229.529 111.5 227.929 111.052C225.753 110.412 223.977 109.788 222.601 109.18C221.257 108.54 220.089 107.596 219.097 106.348C218.137 105.068 217.657 103.372 217.657 101.26C217.657 99.276 218.153 97.548 219.145 96.076C220.137 94.604 221.529 93.484 223.321 92.716C225.113 91.916 227.161 91.516 229.465 91.516C232.921 91.516 235.721 92.364 237.865 94.06C240.041 95.724 241.241 98.06 241.465 101.068H234.073C234.009 99.916 233.513 98.972 232.585 98.236C231.689 97.468 230.489 97.084 228.985 97.084C227.673 97.084 226.617 97.42 225.817 98.092C225.049 98.764 224.665 99.74 224.665 101.02C224.665 101.916 224.953 102.668 225.529 103.276C226.137 103.852 226.873 104.332 227.737 104.716C228.633 105.068 229.881 105.484 231.481 105.964C233.657 106.604 235.433 107.244 236.809 107.884C238.185 108.524 239.369 109.484 240.361 110.764C241.353 112.044 241.849 113.724 241.849 115.804C241.849 117.596 241.385 119.26 240.457 120.796C239.529 122.332 238.169 123.564 236.377 124.492C234.585 125.388 232.457 125.836 229.993 125.836ZM277.195 111.628C277.195 112.588 277.131 113.452 277.003 114.22H257.563C257.723 116.14 258.395 117.644 259.579 118.732C260.763 119.82 262.219 120.364 263.947 120.364C266.443 120.364 268.219 119.292 269.275 117.148H276.523C275.755 119.708 274.283 121.82 272.107 123.484C269.931 125.116 267.259 125.932 264.091 125.932C261.531 125.932 259.227 125.372 257.179 124.252C255.163 123.1 253.579 121.484 252.427 119.404C251.307 117.324 250.747 114.924 250.747 112.204C250.747 109.452 251.307 107.036 252.427 104.956C253.547 102.876 255.115 101.276 257.131 100.156C259.147 99.036 261.467 98.476 264.091 98.476C266.619 98.476 268.875 99.02 270.859 100.108C272.875 101.196 274.427 102.748 275.515 104.764C276.635 106.748 277.195 109.036 277.195 111.628ZM270.235 109.708C270.203 107.98 269.579 106.604 268.363 105.58C267.147 104.524 265.659 103.996 263.899 103.996C262.235 103.996 260.827 104.508 259.675 105.532C258.555 106.524 257.867 107.916 257.611 109.708H270.235ZM293.619 103.036C294.483 101.628 295.603 100.524 296.979 99.724C298.387 98.924 299.987 98.524 301.779 98.524V105.58H300.003C297.891 105.58 296.291 106.076 295.203 107.068C294.147 108.06 293.619 109.788 293.619 112.252V125.5H286.899V98.908H293.619V103.036ZM322.194 119.308L328.914 98.908H336.066L326.226 125.5H318.066L308.274 98.908H315.474L322.194 119.308ZM348.048 95.74C346.864 95.74 345.872 95.372 345.072 94.636C344.304 93.868 343.92 92.924 343.92 91.804C343.92 90.684 344.304 89.756 345.072 89.02C345.872 88.252 346.864 87.868 348.048 87.868C349.232 87.868 350.208 88.252 350.976 89.02C351.776 89.756 352.176 90.684 352.176 91.804C352.176 92.924 351.776 93.868 350.976 94.636C350.208 95.372 349.232 95.74 348.048 95.74ZM351.36 98.908V125.5H344.64V98.908H351.36ZM361.071 112.204C361.071 109.452 361.631 107.052 362.751 105.004C363.871 102.924 365.423 101.324 367.407 100.204C369.391 99.052 371.663 98.476 374.223 98.476C377.519 98.476 380.239 99.308 382.383 100.972C384.559 102.604 386.015 104.908 386.751 107.884H379.503C379.119 106.732 378.463 105.836 377.535 105.196C376.639 104.524 375.519 104.188 374.175 104.188C372.255 104.188 370.735 104.892 369.615 106.3C368.495 107.676 367.935 109.644 367.935 112.204C367.935 114.732 368.495 116.7 369.615 118.108C370.735 119.484 372.255 120.172 374.175 120.172C376.895 120.172 378.671 118.956 379.503 116.524H386.751C386.015 119.404 384.559 121.692 382.383 123.388C380.207 125.084 377.487 125.932 374.223 125.932C371.663 125.932 369.391 125.372 367.407 124.252C365.423 123.1 363.871 121.5 362.751 119.452C361.631 117.372 361.071 114.956 361.071 112.204ZM399.883 95.74C398.699 95.74 397.707 95.372 396.907 94.636C396.139 93.868 395.755 92.924 395.755 91.804C395.755 90.684 396.139 89.756 396.907 89.02C397.707 88.252 398.699 87.868 399.883 87.868C401.067 87.868 402.043 88.252 402.811 89.02C403.611 89.756 404.011 90.684 404.011 91.804C404.011 92.924 403.611 93.868 402.811 94.636C402.043 95.372 401.067 95.74 399.883 95.74ZM403.195 98.908V125.5H396.475V98.908H403.195ZM426.442 125.932C423.882 125.932 421.578 125.372 419.53 124.252C417.482 123.1 415.866 121.484 414.682 119.404C413.53 117.324 412.954 114.924 412.954 112.204C412.954 109.484 413.546 107.084 414.73 105.004C415.946 102.924 417.594 101.324 419.674 100.204C421.754 99.052 424.074 98.476 426.634 98.476C429.194 98.476 431.514 99.052 433.594 100.204C435.674 101.324 437.306 102.924 438.49 105.004C439.706 107.084 440.314 109.484 440.314 112.204C440.314 114.924 439.69 117.324 438.442 119.404C437.226 121.484 435.562 123.1 433.45 124.252C431.37 125.372 429.034 125.932 426.442 125.932ZM426.442 120.076C427.658 120.076 428.794 119.788 429.85 119.212C430.938 118.604 431.802 117.708 432.442 116.524C433.082 115.34 433.402 113.9 433.402 112.204C433.402 109.676 432.73 107.74 431.386 106.396C430.074 105.02 428.458 104.332 426.538 104.332C424.618 104.332 423.002 105.02 421.69 106.396C420.41 107.74 419.77 109.676 419.77 112.204C419.77 114.732 420.394 116.684 421.642 118.06C422.922 119.404 424.522 120.076 426.442 120.076ZM460.219 125.932C458.043 125.932 456.091 125.548 454.363 124.78C452.635 123.98 451.259 122.908 450.235 121.564C449.243 120.22 448.699 118.732 448.603 117.1H455.371C455.499 118.124 455.995 118.972 456.859 119.644C457.755 120.316 458.859 120.652 460.171 120.652C461.451 120.652 462.443 120.396 463.147 119.884C463.883 119.372 464.251 118.716 464.251 117.916C464.251 117.052 463.803 116.412 462.907 115.996C462.043 115.548 460.651 115.068 458.731 114.556C456.747 114.076 455.115 113.58 453.835 113.068C452.587 112.556 451.499 111.772 450.571 110.716C449.675 109.66 449.227 108.236 449.227 106.444C449.227 104.972 449.643 103.628 450.475 102.412C451.339 101.196 452.555 100.236 454.123 99.532C455.723 98.828 457.595 98.476 459.739 98.476C462.907 98.476 465.435 99.276 467.323 100.876C469.211 102.444 470.251 104.572 470.443 107.26H464.011C463.915 106.204 463.467 105.372 462.667 104.764C461.899 104.124 460.859 103.804 459.547 103.804C458.331 103.804 457.387 104.028 456.715 104.476C456.075 104.924 455.755 105.548 455.755 106.348C455.755 107.244 456.203 107.932 457.099 108.412C457.995 108.86 459.387 109.324 461.275 109.804C463.195 110.284 464.779 110.78 466.027 111.292C467.275 111.804 468.347 112.604 469.243 113.692C470.171 114.748 470.651 116.156 470.683 117.916C470.683 119.452 470.251 120.828 469.387 122.044C468.555 123.26 467.339 124.22 465.739 124.924C464.171 125.596 462.331 125.932 460.219 125.932Z" fill="#DCCCBF"/>
<path d="M315.731 179.752C314.051 179.752 312.539 179.464 311.195 178.888C309.851 178.288 308.795 177.448 308.027 176.368C307.259 175.288 306.875 174.028 306.875 172.588H311.267C311.363 173.668 311.783 174.556 312.527 175.252C313.295 175.948 314.363 176.296 315.731 176.296C317.147 176.296 318.251 175.96 319.043 175.288C319.835 174.592 320.231 173.704 320.231 172.624C320.231 171.784 319.979 171.1 319.475 170.572C318.995 170.044 318.383 169.636 317.639 169.348C316.919 169.06 315.911 168.748 314.615 168.412C312.983 167.98 311.651 167.548 310.619 167.116C309.611 166.66 308.747 165.964 308.027 165.028C307.307 164.092 306.947 162.844 306.947 161.284C306.947 159.844 307.307 158.584 308.027 157.504C308.747 156.424 309.755 155.596 311.051 155.02C312.347 154.444 313.847 154.156 315.551 154.156C317.975 154.156 319.955 154.768 321.491 155.992C323.051 157.192 323.915 158.848 324.083 160.96H319.547C319.475 160.048 319.043 159.268 318.251 158.62C317.459 157.972 316.415 157.648 315.119 157.648C313.943 157.648 312.983 157.948 312.239 158.548C311.495 159.148 311.123 160.012 311.123 161.14C311.123 161.908 311.351 162.544 311.807 163.048C312.287 163.528 312.887 163.912 313.607 164.2C314.327 164.488 315.311 164.8 316.559 165.136C318.215 165.592 319.559 166.048 320.591 166.504C321.647 166.96 322.535 167.668 323.255 168.628C323.999 169.564 324.371 170.824 324.371 172.408C324.371 173.68 324.023 174.88 323.327 176.008C322.655 177.136 321.659 178.048 320.339 178.744C319.043 179.416 317.507 179.752 315.731 179.752ZM336.917 162.58C337.613 161.668 338.561 160.9 339.761 160.276C340.961 159.652 342.317 159.34 343.829 159.34C345.557 159.34 347.129 159.772 348.545 160.636C349.985 161.476 351.113 162.664 351.929 164.2C352.745 165.736 353.153 167.5 353.153 169.492C353.153 171.484 352.745 173.272 351.929 174.856C351.113 176.416 349.985 177.64 348.545 178.528C347.129 179.392 345.557 179.824 343.829 179.824C342.317 179.824 340.973 179.524 339.797 178.924C338.621 178.3 337.661 177.532 336.917 176.62V188.932H332.813V159.664H336.917V162.58ZM348.977 169.492C348.977 168.124 348.689 166.948 348.113 165.964C347.561 164.956 346.817 164.2 345.881 163.696C344.969 163.168 343.985 162.904 342.929 162.904C341.897 162.904 340.913 163.168 339.977 163.696C339.065 164.224 338.321 164.992 337.745 166C337.193 167.008 336.917 168.196 336.917 169.564C336.917 170.932 337.193 172.132 337.745 173.164C338.321 174.172 339.065 174.94 339.977 175.468C340.913 175.996 341.897 176.26 342.929 176.26C343.985 176.26 344.969 175.996 345.881 175.468C346.817 174.916 347.561 174.124 348.113 173.092C348.689 172.06 348.977 170.86 348.977 169.492ZM375.896 174.388H365.42L363.62 179.5H359.336L368.3 154.444H373.052L382.016 179.5H377.696L375.896 174.388ZM374.744 171.04L370.676 159.412L366.572 171.04H374.744Z" fill="#DCCCBF"/>
</svg>
