<svg width="413" height="111" viewBox="0 0 413 111" fill="none" xmlns="http://www.w3.org/2000/svg">
<path d="M0.275306 20.9322C0.275306 17.6362 1.01131 14.6922 2.48331 12.1002C3.98731 9.47618 6.01931 7.44418 8.57931 6.00418C11.1713 4.53218 14.0673 3.79618 17.2673 3.79618C21.0113 3.79618 24.2913 4.75618 27.1073 6.67618C29.9233 8.59618 31.8913 11.2522 33.0113 14.6442H25.2833C24.5153 13.0442 23.4273 11.8442 22.0193 11.0442C20.6433 10.2442 19.0433 9.84418 17.2193 9.84418C15.2673 9.84418 13.5233 10.3082 11.9873 11.2362C10.4833 12.1322 9.29931 13.4122 8.43531 15.0762C7.60331 16.7402 7.18731 18.6922 7.18731 20.9322C7.18731 23.1402 7.60331 25.0922 8.43531 26.7882C9.29931 28.4522 10.4833 29.7482 11.9873 30.6762C13.5233 31.5722 15.2673 32.0202 17.2193 32.0202C19.0433 32.0202 20.6433 31.6202 22.0193 30.8202C23.4273 29.9882 24.5153 28.7722 25.2833 27.1722H33.0113C31.8913 30.5962 29.9233 33.2682 27.1073 35.1882C24.3233 37.0762 21.0433 38.0202 17.2673 38.0202C14.0673 38.0202 11.1713 37.3002 8.57931 35.8602C6.01931 34.3882 3.98731 32.3562 2.48331 29.7642C1.01131 27.1722 0.275306 24.2282 0.275306 20.9322ZM55.3591 38.1642C52.7991 38.1642 50.4951 37.6042 48.4471 36.4842C46.3991 35.3322 44.7831 33.7162 43.5991 31.6362C42.4471 29.5562 41.8711 27.1562 41.8711 24.4362C41.8711 21.7162 42.4631 19.3162 43.6471 17.2362C44.8631 15.1562 46.5111 13.5562 48.5911 12.4362C50.6711 11.2842 52.9911 10.7082 55.5511 10.7082C58.1111 10.7082 60.4311 11.2842 62.5111 12.4362C64.5911 13.5562 66.2231 15.1562 67.4071 17.2362C68.6231 19.3162 69.2311 21.7162 69.2311 24.4362C69.2311 27.1562 68.6071 29.5562 67.3591 31.6362C66.1431 33.7162 64.4791 35.3322 62.3671 36.4842C60.2871 37.6042 57.9511 38.1642 55.3591 38.1642ZM55.3591 32.3082C56.5751 32.3082 57.7111 32.0202 58.7671 31.4442C59.8551 30.8362 60.7191 29.9402 61.3591 28.7562C61.9991 27.5722 62.3191 26.1322 62.3191 24.4362C62.3191 21.9082 61.6471 19.9722 60.3031 18.6282C58.9911 17.2522 57.3751 16.5642 55.4551 16.5642C53.5351 16.5642 51.9191 17.2522 50.6071 18.6282C49.3271 19.9722 48.6871 21.9082 48.6871 24.4362C48.6871 26.9642 49.3111 28.9162 50.5591 30.2922C51.8391 31.6362 53.4391 32.3082 55.3591 32.3082ZM93.6964 10.7562C96.8644 10.7562 99.4244 11.7642 101.376 13.7802C103.328 15.7642 104.304 18.5482 104.304 22.1322V37.7322H97.5844V23.0442C97.5844 20.9322 97.0564 19.3162 96.0004 18.1962C94.9444 17.0442 93.5044 16.4682 91.6804 16.4682C89.8244 16.4682 88.3524 17.0442 87.2644 18.1962C86.2084 19.3162 85.6804 20.9322 85.6804 23.0442V37.7322H78.9604V11.1402H85.6804V14.4522C86.5764 13.3002 87.7124 12.4042 89.0884 11.7642C90.4964 11.0922 92.0324 10.7562 93.6964 10.7562ZM125.671 38.1642C123.495 38.1642 121.543 37.7802 119.815 37.0122C118.087 36.2122 116.711 35.1402 115.687 33.7962C114.695 32.4522 114.151 30.9642 114.055 29.3322H120.823C120.951 30.3562 121.447 31.2042 122.311 31.8762C123.207 32.5482 124.311 32.8842 125.623 32.8842C126.903 32.8842 127.895 32.6282 128.599 32.1162C129.335 31.6042 129.703 30.9482 129.703 30.1482C129.703 29.2842 129.255 28.6442 128.359 28.2282C127.495 27.7802 126.103 27.3002 124.183 26.7882C122.199 26.3082 120.567 25.8122 119.287 25.3002C118.039 24.7882 116.951 24.0042 116.023 22.9482C115.127 21.8922 114.679 20.4682 114.679 18.6762C114.679 17.2042 115.095 15.8602 115.927 14.6442C116.791 13.4282 118.007 12.4682 119.575 11.7642C121.175 11.0602 123.047 10.7082 125.191 10.7082C128.359 10.7082 130.887 11.5082 132.775 13.1082C134.663 14.6762 135.703 16.8042 135.895 19.4922H129.463C129.367 18.4362 128.919 17.6042 128.119 16.9962C127.351 16.3562 126.311 16.0362 124.999 16.0362C123.783 16.0362 122.839 16.2602 122.167 16.7082C121.527 17.1562 121.207 17.7802 121.207 18.5802C121.207 19.4762 121.655 20.1642 122.551 20.6442C123.447 21.0922 124.839 21.5562 126.727 22.0362C128.647 22.5162 130.231 23.0122 131.479 23.5242C132.727 24.0362 133.799 24.8362 134.695 25.9242C135.623 26.9802 136.103 28.3882 136.135 30.1482C136.135 31.6842 135.703 33.0602 134.839 34.2762C134.007 35.4922 132.791 36.4522 131.191 37.1562C129.623 37.8282 127.783 38.1642 125.671 38.1642ZM171.555 11.1402V37.7322H164.787V34.3722C163.923 35.5242 162.787 36.4362 161.379 37.1082C160.003 37.7482 158.499 38.0682 156.867 38.0682C154.787 38.0682 152.947 37.6362 151.347 36.7722C149.747 35.8762 148.483 34.5802 147.555 32.8842C146.659 31.1562 146.211 29.1082 146.211 26.7402V11.1402H152.931V25.7802C152.931 27.8922 153.459 29.5242 154.515 30.6762C155.571 31.7962 157.011 32.3562 158.835 32.3562C160.691 32.3562 162.147 31.7962 163.203 30.6762C164.259 29.5242 164.787 27.8922 164.787 25.7802V11.1402H171.555ZM189.705 2.21218V37.7322H182.985V2.21218H189.705ZM208.969 16.6602V29.5242C208.969 30.4202 209.177 31.0762 209.593 31.4922C210.041 31.8762 210.777 32.0682 211.801 32.0682H214.921V37.7322H210.697C205.033 37.7322 202.201 34.9802 202.201 29.4762V16.6602H199.033V11.1402H202.201V4.56418H208.969V11.1402H214.921V16.6602H208.969ZM236.362 38.1642C233.802 38.1642 231.498 37.6042 229.45 36.4842C227.402 35.3322 225.786 33.7162 224.602 31.6362C223.45 29.5562 222.874 27.1562 222.874 24.4362C222.874 21.7162 223.466 19.3162 224.65 17.2362C225.866 15.1562 227.514 13.5562 229.594 12.4362C231.674 11.2842 233.994 10.7082 236.554 10.7082C239.114 10.7082 241.434 11.2842 243.514 12.4362C245.594 13.5562 247.226 15.1562 248.41 17.2362C249.626 19.3162 250.234 21.7162 250.234 24.4362C250.234 27.1562 249.61 29.5562 248.362 31.6362C247.146 33.7162 245.482 35.3322 243.37 36.4842C241.29 37.6042 238.954 38.1642 236.362 38.1642ZM236.362 32.3082C237.578 32.3082 238.714 32.0202 239.77 31.4442C240.858 30.8362 241.722 29.9402 242.362 28.7562C243.002 27.5722 243.322 26.1322 243.322 24.4362C243.322 21.9082 242.65 19.9722 241.306 18.6282C239.994 17.2522 238.378 16.5642 236.458 16.5642C234.538 16.5642 232.922 17.2522 231.61 18.6282C230.33 19.9722 229.69 21.9082 229.69 24.4362C229.69 26.9642 230.314 28.9162 231.562 30.2922C232.842 31.6362 234.442 32.3082 236.362 32.3082ZM266.684 15.2682C267.548 13.8602 268.668 12.7562 270.044 11.9562C271.452 11.1562 273.052 10.7562 274.844 10.7562V17.8122H273.068C270.956 17.8122 269.356 18.3082 268.268 19.3002C267.212 20.2922 266.684 22.0202 266.684 24.4842V37.7322H259.964V11.1402H266.684V15.2682ZM287.578 7.97218C286.394 7.97218 285.402 7.60418 284.602 6.86818C283.834 6.10018 283.45 5.15618 283.45 4.03618C283.45 2.91618 283.834 1.98818 284.602 1.25218C285.402 0.484176 286.394 0.100176 287.578 0.100176C288.762 0.100176 289.738 0.484176 290.506 1.25218C291.306 1.98818 291.706 2.91618 291.706 4.03618C291.706 5.15618 291.306 6.10018 290.506 6.86818C289.738 7.60418 288.762 7.97218 287.578 7.97218ZM290.89 11.1402V37.7322H284.17V11.1402H290.89ZM300.601 24.3402C300.601 21.6522 301.129 19.2682 302.185 17.1882C303.273 15.1082 304.729 13.5082 306.553 12.3882C308.409 11.2682 310.473 10.7082 312.745 10.7082C314.729 10.7082 316.457 11.1082 317.929 11.9082C319.433 12.7082 320.633 13.7162 321.529 14.9322V11.1402H328.297V37.7322H321.529V33.8442C320.665 35.0922 319.465 36.1322 317.929 36.9642C316.425 37.7642 314.681 38.1642 312.697 38.1642C310.457 38.1642 308.409 37.5882 306.553 36.4362C304.729 35.2842 303.273 33.6682 302.185 31.5882C301.129 29.4762 300.601 27.0602 300.601 24.3402ZM321.529 24.4362C321.529 22.8042 321.209 21.4122 320.569 20.2602C319.929 19.0762 319.065 18.1802 317.977 17.5722C316.889 16.9322 315.721 16.6122 314.473 16.6122C313.225 16.6122 312.073 16.9162 311.017 17.5242C309.961 18.1322 309.097 19.0282 308.425 20.2122C307.785 21.3642 307.465 22.7402 307.465 24.3402C307.465 25.9402 307.785 27.3482 308.425 28.5642C309.097 29.7482 309.961 30.6602 311.017 31.3002C312.105 31.9402 313.257 32.2602 314.473 32.2602C315.721 32.2602 316.889 31.9562 317.977 31.3482C319.065 30.7082 319.929 29.8122 320.569 28.6602C321.209 27.4762 321.529 26.0682 321.529 24.4362ZM349.836 38.1642C347.66 38.1642 345.708 37.7802 343.98 37.0122C342.252 36.2122 340.876 35.1402 339.852 33.7962C338.86 32.4522 338.316 30.9642 338.22 29.3322H344.988C345.116 30.3562 345.612 31.2042 346.476 31.8762C347.372 32.5482 348.476 32.8842 349.788 32.8842C351.068 32.8842 352.06 32.6282 352.764 32.1162C353.5 31.6042 353.868 30.9482 353.868 30.1482C353.868 29.2842 353.42 28.6442 352.524 28.2282C351.66 27.7802 350.268 27.3002 348.348 26.7882C346.364 26.3082 344.732 25.8122 343.452 25.3002C342.204 24.7882 341.116 24.0042 340.188 22.9482C339.292 21.8922 338.844 20.4682 338.844 18.6762C338.844 17.2042 339.26 15.8602 340.092 14.6442C340.956 13.4282 342.172 12.4682 343.74 11.7642C345.34 11.0602 347.212 10.7082 349.356 10.7082C352.524 10.7082 355.052 11.5082 356.94 13.1082C358.828 14.6762 359.868 16.8042 360.06 19.4922H353.628C353.532 18.4362 353.084 17.6042 352.284 16.9962C351.516 16.3562 350.476 16.0362 349.164 16.0362C347.948 16.0362 347.004 16.2602 346.332 16.7082C345.692 17.1562 345.372 17.7802 345.372 18.5802C345.372 19.4762 345.82 20.1642 346.716 20.6442C347.612 21.0922 349.004 21.5562 350.892 22.0362C352.812 22.5162 354.396 23.0122 355.644 23.5242C356.892 24.0362 357.964 24.8362 358.86 25.9242C359.788 26.9802 360.268 28.3882 360.3 30.1482C360.3 31.6842 359.868 33.0602 359.004 34.2762C358.172 35.4922 356.956 36.4522 355.356 37.1562C353.788 37.8282 351.948 38.1642 349.836 38.1642ZM412.294 11.1402L395.83 50.3082H388.678L394.438 37.0602L383.782 11.1402H391.318L398.182 29.7162L405.142 11.1402H412.294ZM93.9925 110.068C91.6565 110.068 89.5445 109.668 87.6565 108.868C85.8005 108.068 84.3285 106.916 83.2405 105.412C82.1525 103.908 81.5925 102.132 81.5605 100.084H88.7605C88.8565 101.46 89.3365 102.548 90.2005 103.348C91.0965 104.148 92.3125 104.548 93.8485 104.548C95.4165 104.548 96.6485 104.18 97.5445 103.444C98.4405 102.676 98.8885 101.684 98.8885 100.468C98.8885 99.4762 98.5845 98.6602 97.9765 98.0202C97.3685 97.3802 96.6005 96.8842 95.6725 96.5322C94.7765 96.1482 93.5285 95.7322 91.9285 95.2842C89.7525 94.6442 87.9765 94.0202 86.6005 93.4122C85.2565 92.7722 84.0885 91.8282 83.0965 90.5802C82.1365 89.3002 81.6565 87.6042 81.6565 85.4922C81.6565 83.5082 82.1525 81.7802 83.1445 80.3082C84.1365 78.8362 85.5285 77.7162 87.3205 76.9482C89.1125 76.1482 91.1605 75.7482 93.4645 75.7482C96.9205 75.7482 99.7205 76.5962 101.865 78.2922C104.041 79.9562 105.241 82.2922 105.465 85.3002H98.0725C98.0085 84.1482 97.5125 83.2042 96.5845 82.4682C95.6885 81.7002 94.4885 81.3162 92.9845 81.3162C91.6725 81.3162 90.6165 81.6522 89.8165 82.3242C89.0485 82.9962 88.6645 83.9722 88.6645 85.2522C88.6645 86.1482 88.9525 86.9002 89.5285 87.5082C90.1365 88.0842 90.8725 88.5642 91.7365 88.9482C92.6325 89.3002 93.8805 89.7162 95.4805 90.1962C97.6565 90.8362 99.4325 91.4762 100.809 92.1162C102.185 92.7562 103.369 93.7162 104.361 94.9962C105.353 96.2762 105.849 97.9562 105.849 100.036C105.849 101.828 105.385 103.492 104.457 105.028C103.529 106.564 102.169 107.796 100.377 108.724C98.5845 109.62 96.4565 110.068 93.9925 110.068ZM141.195 95.8602C141.195 96.8202 141.131 97.6842 141.003 98.4522H121.563C121.723 100.372 122.395 101.876 123.579 102.964C124.763 104.052 126.219 104.596 127.947 104.596C130.443 104.596 132.219 103.524 133.275 101.38H140.523C139.755 103.94 138.283 106.052 136.107 107.716C133.931 109.348 131.259 110.164 128.091 110.164C125.531 110.164 123.227 109.604 121.179 108.484C119.163 107.332 117.579 105.716 116.427 103.636C115.307 101.556 114.747 99.1562 114.747 96.4362C114.747 93.6842 115.307 91.2682 116.427 89.1882C117.547 87.1082 119.115 85.5082 121.131 84.3882C123.147 83.2682 125.467 82.7082 128.091 82.7082C130.619 82.7082 132.875 83.2522 134.859 84.3402C136.875 85.4282 138.427 86.9802 139.515 88.9962C140.635 90.9802 141.195 93.2682 141.195 95.8602ZM134.235 93.9402C134.203 92.2122 133.579 90.8362 132.363 89.8122C131.147 88.7562 129.659 88.2282 127.899 88.2282C126.235 88.2282 124.827 88.7402 123.675 89.7642C122.555 90.7562 121.867 92.1482 121.611 93.9402H134.235ZM157.619 87.2682C158.483 85.8602 159.603 84.7562 160.979 83.9562C162.387 83.1562 163.987 82.7562 165.779 82.7562V89.8122H164.003C161.891 89.8122 160.291 90.3082 159.203 91.3002C158.147 92.2922 157.619 94.0202 157.619 96.4842V109.732H150.899V83.1402H157.619V87.2682ZM186.194 103.54L192.914 83.1402H200.066L190.226 109.732H182.066L172.274 83.1402H179.474L186.194 103.54ZM212.048 79.9722C210.864 79.9722 209.872 79.6042 209.072 78.8682C208.304 78.1002 207.92 77.1562 207.92 76.0362C207.92 74.9162 208.304 73.9882 209.072 73.2522C209.872 72.4842 210.864 72.1002 212.048 72.1002C213.232 72.1002 214.208 72.4842 214.976 73.2522C215.776 73.9882 216.176 74.9162 216.176 76.0362C216.176 77.1562 215.776 78.1002 214.976 78.8682C214.208 79.6042 213.232 79.9722 212.048 79.9722ZM215.36 83.1402V109.732H208.64V83.1402H215.36ZM225.072 96.4362C225.072 93.6842 225.632 91.2842 226.752 89.2362C227.872 87.1562 229.424 85.5562 231.408 84.4362C233.392 83.2842 235.664 82.7082 238.224 82.7082C241.52 82.7082 244.24 83.5402 246.384 85.2042C248.56 86.8362 250.016 89.1402 250.752 92.1162H243.504C243.12 90.9642 242.464 90.0682 241.536 89.4282C240.64 88.7562 239.52 88.4202 238.176 88.4202C236.256 88.4202 234.736 89.1242 233.616 90.5322C232.496 91.9082 231.936 93.8762 231.936 96.4362C231.936 98.9642 232.496 100.932 233.616 102.34C234.736 103.716 236.256 104.404 238.176 104.404C240.896 104.404 242.672 103.188 243.504 100.756H250.752C250.016 103.636 248.56 105.924 246.384 107.62C244.208 109.316 241.488 110.164 238.224 110.164C235.664 110.164 233.392 109.604 231.408 108.484C229.424 107.332 227.872 105.732 226.752 103.684C225.632 101.604 225.072 99.1882 225.072 96.4362ZM263.883 79.9722C262.699 79.9722 261.707 79.6042 260.907 78.8682C260.139 78.1002 259.755 77.1562 259.755 76.0362C259.755 74.9162 260.139 73.9882 260.907 73.2522C261.707 72.4842 262.699 72.1002 263.883 72.1002C265.067 72.1002 266.043 72.4842 266.811 73.2522C267.611 73.9882 268.011 74.9162 268.011 76.0362C268.011 77.1562 267.611 78.1002 266.811 78.8682C266.043 79.6042 265.067 79.9722 263.883 79.9722ZM267.195 83.1402V109.732H260.475V83.1402H267.195ZM290.442 110.164C287.882 110.164 285.578 109.604 283.53 108.484C281.482 107.332 279.866 105.716 278.682 103.636C277.53 101.556 276.954 99.1562 276.954 96.4362C276.954 93.7162 277.546 91.3162 278.73 89.2362C279.946 87.1562 281.594 85.5562 283.674 84.4362C285.754 83.2842 288.074 82.7082 290.634 82.7082C293.194 82.7082 295.514 83.2842 297.594 84.4362C299.674 85.5562 301.306 87.1562 302.49 89.2362C303.706 91.3162 304.314 93.7162 304.314 96.4362C304.314 99.1562 303.69 101.556 302.442 103.636C301.226 105.716 299.562 107.332 297.45 108.484C295.37 109.604 293.034 110.164 290.442 110.164ZM290.442 104.308C291.658 104.308 292.794 104.02 293.85 103.444C294.938 102.836 295.802 101.94 296.442 100.756C297.082 99.5722 297.402 98.1322 297.402 96.4362C297.402 93.9082 296.73 91.9722 295.386 90.6282C294.074 89.2522 292.458 88.5642 290.538 88.5642C288.618 88.5642 287.002 89.2522 285.69 90.6282C284.41 91.9722 283.77 93.9082 283.77 96.4362C283.77 98.9642 284.394 100.916 285.642 102.292C286.922 103.636 288.522 104.308 290.442 104.308ZM324.219 110.164C322.043 110.164 320.091 109.78 318.363 109.012C316.635 108.212 315.259 107.14 314.235 105.796C313.243 104.452 312.699 102.964 312.603 101.332H319.371C319.499 102.356 319.995 103.204 320.859 103.876C321.755 104.548 322.859 104.884 324.171 104.884C325.451 104.884 326.443 104.628 327.147 104.116C327.883 103.604 328.251 102.948 328.251 102.148C328.251 101.284 327.803 100.644 326.907 100.228C326.043 99.7802 324.651 99.3002 322.731 98.7882C320.747 98.3082 319.115 97.8122 317.835 97.3002C316.587 96.7882 315.499 96.0042 314.571 94.9482C313.675 93.8922 313.227 92.4682 313.227 90.6762C313.227 89.2042 313.643 87.8602 314.475 86.6442C315.339 85.4282 316.555 84.4682 318.123 83.7642C319.723 83.0602 321.595 82.7082 323.739 82.7082C326.907 82.7082 329.435 83.5082 331.323 85.1082C333.211 86.6762 334.251 88.8042 334.443 91.4922H328.011C327.915 90.4362 327.467 89.6042 326.667 88.9962C325.899 88.3562 324.859 88.0362 323.547 88.0362C322.331 88.0362 321.387 88.2602 320.715 88.7082C320.075 89.1562 319.755 89.7802 319.755 90.5802C319.755 91.4762 320.203 92.1642 321.099 92.6442C321.995 93.0922 323.387 93.5562 325.275 94.0362C327.195 94.5162 328.779 95.0122 330.027 95.5242C331.275 96.0362 332.347 96.8362 333.243 97.9242C334.171 98.9802 334.651 100.388 334.683 102.148C334.683 103.684 334.251 105.06 333.387 106.276C332.555 107.492 331.339 108.452 329.739 109.156C328.171 109.828 326.331 110.164 324.219 110.164Z" fill="#EFDBCB"/>
<path d="M0.275306 20.9322C0.275306 17.6362 1.01131 14.6922 2.48331 12.1002C3.98731 9.47618 6.01931 7.44418 8.57931 6.00418C11.1713 4.53218 14.0673 3.79618 17.2673 3.79618C21.0113 3.79618 24.2913 4.75618 27.1073 6.67618C29.9233 8.59618 31.8913 11.2522 33.0113 14.6442H25.2833C24.5153 13.0442 23.4273 11.8442 22.0193 11.0442C20.6433 10.2442 19.0433 9.84418 17.2193 9.84418C15.2673 9.84418 13.5233 10.3082 11.9873 11.2362C10.4833 12.1322 9.29931 13.4122 8.43531 15.0762C7.60331 16.7402 7.18731 18.6922 7.18731 20.9322C7.18731 23.1402 7.60331 25.0922 8.43531 26.7882C9.29931 28.4522 10.4833 29.7482 11.9873 30.6762C13.5233 31.5722 15.2673 32.0202 17.2193 32.0202C19.0433 32.0202 20.6433 31.6202 22.0193 30.8202C23.4273 29.9882 24.5153 28.7722 25.2833 27.1722H33.0113C31.8913 30.5962 29.9233 33.2682 27.1073 35.1882C24.3233 37.0762 21.0433 38.0202 17.2673 38.0202C14.0673 38.0202 11.1713 37.3002 8.57931 35.8602C6.01931 34.3882 3.98731 32.3562 2.48331 29.7642C1.01131 27.1722 0.275306 24.2282 0.275306 20.9322ZM55.3591 38.1642C52.7991 38.1642 50.4951 37.6042 48.4471 36.4842C46.3991 35.3322 44.7831 33.7162 43.5991 31.6362C42.4471 29.5562 41.8711 27.1562 41.8711 24.4362C41.8711 21.7162 42.4631 19.3162 43.6471 17.2362C44.8631 15.1562 46.5111 13.5562 48.5911 12.4362C50.6711 11.2842 52.9911 10.7082 55.5511 10.7082C58.1111 10.7082 60.4311 11.2842 62.5111 12.4362C64.5911 13.5562 66.2231 15.1562 67.4071 17.2362C68.6231 19.3162 69.2311 21.7162 69.2311 24.4362C69.2311 27.1562 68.6071 29.5562 67.3591 31.6362C66.1431 33.7162 64.4791 35.3322 62.3671 36.4842C60.2871 37.6042 57.9511 38.1642 55.3591 38.1642ZM55.3591 32.3082C56.5751 32.3082 57.7111 32.0202 58.7671 31.4442C59.8551 30.8362 60.7191 29.9402 61.3591 28.7562C61.9991 27.5722 62.3191 26.1322 62.3191 24.4362C62.3191 21.9082 61.6471 19.9722 60.3031 18.6282C58.9911 17.2522 57.3751 16.5642 55.4551 16.5642C53.5351 16.5642 51.9191 17.2522 50.6071 18.6282C49.3271 19.9722 48.6871 21.9082 48.6871 24.4362C48.6871 26.9642 49.3111 28.9162 50.5591 30.2922C51.8391 31.6362 53.4391 32.3082 55.3591 32.3082ZM93.6964 10.7562C96.8644 10.7562 99.4244 11.7642 101.376 13.7802C103.328 15.7642 104.304 18.5482 104.304 22.1322V37.7322H97.5844V23.0442C97.5844 20.9322 97.0564 19.3162 96.0004 18.1962C94.9444 17.0442 93.5044 16.4682 91.6804 16.4682C89.8244 16.4682 88.3524 17.0442 87.2644 18.1962C86.2084 19.3162 85.6804 20.9322 85.6804 23.0442V37.7322H78.9604V11.1402H85.6804V14.4522C86.5764 13.3002 87.7124 12.4042 89.0884 11.7642C90.4964 11.0922 92.0324 10.7562 93.6964 10.7562ZM125.671 38.1642C123.495 38.1642 121.543 37.7802 119.815 37.0122C118.087 36.2122 116.711 35.1402 115.687 33.7962C114.695 32.4522 114.151 30.9642 114.055 29.3322H120.823C120.951 30.3562 121.447 31.2042 122.311 31.8762C123.207 32.5482 124.311 32.8842 125.623 32.8842C126.903 32.8842 127.895 32.6282 128.599 32.1162C129.335 31.6042 129.703 30.9482 129.703 30.1482C129.703 29.2842 129.255 28.6442 128.359 28.2282C127.495 27.7802 126.103 27.3002 124.183 26.7882C122.199 26.3082 120.567 25.8122 119.287 25.3002C118.039 24.7882 116.951 24.0042 116.023 22.9482C115.127 21.8922 114.679 20.4682 114.679 18.6762C114.679 17.2042 115.095 15.8602 115.927 14.6442C116.791 13.4282 118.007 12.4682 119.575 11.7642C121.175 11.0602 123.047 10.7082 125.191 10.7082C128.359 10.7082 130.887 11.5082 132.775 13.1082C134.663 14.6762 135.703 16.8042 135.895 19.4922H129.463C129.367 18.4362 128.919 17.6042 128.119 16.9962C127.351 16.3562 126.311 16.0362 124.999 16.0362C123.783 16.0362 122.839 16.2602 122.167 16.7082C121.527 17.1562 121.207 17.7802 121.207 18.5802C121.207 19.4762 121.655 20.1642 122.551 20.6442C123.447 21.0922 124.839 21.5562 126.727 22.0362C128.647 22.5162 130.231 23.0122 131.479 23.5242C132.727 24.0362 133.799 24.8362 134.695 25.9242C135.623 26.9802 136.103 28.3882 136.135 30.1482C136.135 31.6842 135.703 33.0602 134.839 34.2762C134.007 35.4922 132.791 36.4522 131.191 37.1562C129.623 37.8282 127.783 38.1642 125.671 38.1642ZM171.555 11.1402V37.7322H164.787V34.3722C163.923 35.5242 162.787 36.4362 161.379 37.1082C160.003 37.7482 158.499 38.0682 156.867 38.0682C154.787 38.0682 152.947 37.6362 151.347 36.7722C149.747 35.8762 148.483 34.5802 147.555 32.8842C146.659 31.1562 146.211 29.1082 146.211 26.7402V11.1402H152.931V25.7802C152.931 27.8922 153.459 29.5242 154.515 30.6762C155.571 31.7962 157.011 32.3562 158.835 32.3562C160.691 32.3562 162.147 31.7962 163.203 30.6762C164.259 29.5242 164.787 27.8922 164.787 25.7802V11.1402H171.555ZM189.705 2.21218V37.7322H182.985V2.21218H189.705ZM208.969 16.6602V29.5242C208.969 30.4202 209.177 31.0762 209.593 31.4922C210.041 31.8762 210.777 32.0682 211.801 32.0682H214.921V37.7322H210.697C205.033 37.7322 202.201 34.9802 202.201 29.4762V16.6602H199.033V11.1402H202.201V4.56418H208.969V11.1402H214.921V16.6602H208.969ZM236.362 38.1642C233.802 38.1642 231.498 37.6042 229.45 36.4842C227.402 35.3322 225.786 33.7162 224.602 31.6362C223.45 29.5562 222.874 27.1562 222.874 24.4362C222.874 21.7162 223.466 19.3162 224.65 17.2362C225.866 15.1562 227.514 13.5562 229.594 12.4362C231.674 11.2842 233.994 10.7082 236.554 10.7082C239.114 10.7082 241.434 11.2842 243.514 12.4362C245.594 13.5562 247.226 15.1562 248.41 17.2362C249.626 19.3162 250.234 21.7162 250.234 24.4362C250.234 27.1562 249.61 29.5562 248.362 31.6362C247.146 33.7162 245.482 35.3322 243.37 36.4842C241.29 37.6042 238.954 38.1642 236.362 38.1642ZM236.362 32.3082C237.578 32.3082 238.714 32.0202 239.77 31.4442C240.858 30.8362 241.722 29.9402 242.362 28.7562C243.002 27.5722 243.322 26.1322 243.322 24.4362C243.322 21.9082 242.65 19.9722 241.306 18.6282C239.994 17.2522 238.378 16.5642 236.458 16.5642C234.538 16.5642 232.922 17.2522 231.61 18.6282C230.33 19.9722 229.69 21.9082 229.69 24.4362C229.69 26.9642 230.314 28.9162 231.562 30.2922C232.842 31.6362 234.442 32.3082 236.362 32.3082ZM266.684 15.2682C267.548 13.8602 268.668 12.7562 270.044 11.9562C271.452 11.1562 273.052 10.7562 274.844 10.7562V17.8122H273.068C270.956 17.8122 269.356 18.3082 268.268 19.3002C267.212 20.2922 266.684 22.0202 266.684 24.4842V37.7322H259.964V11.1402H266.684V15.2682ZM287.578 7.97218C286.394 7.97218 285.402 7.60418 284.602 6.86818C283.834 6.10018 283.45 5.15618 283.45 4.03618C283.45 2.91618 283.834 1.98818 284.602 1.25218C285.402 0.484176 286.394 0.100176 287.578 0.100176C288.762 0.100176 289.738 0.484176 290.506 1.25218C291.306 1.98818 291.706 2.91618 291.706 4.03618C291.706 5.15618 291.306 6.10018 290.506 6.86818C289.738 7.60418 288.762 7.97218 287.578 7.97218ZM290.89 11.1402V37.7322H284.17V11.1402H290.89ZM300.601 24.3402C300.601 21.6522 301.129 19.2682 302.185 17.1882C303.273 15.1082 304.729 13.5082 306.553 12.3882C308.409 11.2682 310.473 10.7082 312.745 10.7082C314.729 10.7082 316.457 11.1082 317.929 11.9082C319.433 12.7082 320.633 13.7162 321.529 14.9322V11.1402H328.297V37.7322H321.529V33.8442C320.665 35.0922 319.465 36.1322 317.929 36.9642C316.425 37.7642 314.681 38.1642 312.697 38.1642C310.457 38.1642 308.409 37.5882 306.553 36.4362C304.729 35.2842 303.273 33.6682 302.185 31.5882C301.129 29.4762 300.601 27.0602 300.601 24.3402ZM321.529 24.4362C321.529 22.8042 321.209 21.4122 320.569 20.2602C319.929 19.0762 319.065 18.1802 317.977 17.5722C316.889 16.9322 315.721 16.6122 314.473 16.6122C313.225 16.6122 312.073 16.9162 311.017 17.5242C309.961 18.1322 309.097 19.0282 308.425 20.2122C307.785 21.3642 307.465 22.7402 307.465 24.3402C307.465 25.9402 307.785 27.3482 308.425 28.5642C309.097 29.7482 309.961 30.6602 311.017 31.3002C312.105 31.9402 313.257 32.2602 314.473 32.2602C315.721 32.2602 316.889 31.9562 317.977 31.3482C319.065 30.7082 319.929 29.8122 320.569 28.6602C321.209 27.4762 321.529 26.0682 321.529 24.4362ZM349.836 38.1642C347.66 38.1642 345.708 37.7802 343.98 37.0122C342.252 36.2122 340.876 35.1402 339.852 33.7962C338.86 32.4522 338.316 30.9642 338.22 29.3322H344.988C345.116 30.3562 345.612 31.2042 346.476 31.8762C347.372 32.5482 348.476 32.8842 349.788 32.8842C351.068 32.8842 352.06 32.6282 352.764 32.1162C353.5 31.6042 353.868 30.9482 353.868 30.1482C353.868 29.2842 353.42 28.6442 352.524 28.2282C351.66 27.7802 350.268 27.3002 348.348 26.7882C346.364 26.3082 344.732 25.8122 343.452 25.3002C342.204 24.7882 341.116 24.0042 340.188 22.9482C339.292 21.8922 338.844 20.4682 338.844 18.6762C338.844 17.2042 339.26 15.8602 340.092 14.6442C340.956 13.4282 342.172 12.4682 343.74 11.7642C345.34 11.0602 347.212 10.7082 349.356 10.7082C352.524 10.7082 355.052 11.5082 356.94 13.1082C358.828 14.6762 359.868 16.8042 360.06 19.4922H353.628C353.532 18.4362 353.084 17.6042 352.284 16.9962C351.516 16.3562 350.476 16.0362 349.164 16.0362C347.948 16.0362 347.004 16.2602 346.332 16.7082C345.692 17.1562 345.372 17.7802 345.372 18.5802C345.372 19.4762 345.82 20.1642 346.716 20.6442C347.612 21.0922 349.004 21.5562 350.892 22.0362C352.812 22.5162 354.396 23.0122 355.644 23.5242C356.892 24.0362 357.964 24.8362 358.86 25.9242C359.788 26.9802 360.268 28.3882 360.3 30.1482C360.3 31.6842 359.868 33.0602 359.004 34.2762C358.172 35.4922 356.956 36.4522 355.356 37.1562C353.788 37.8282 351.948 38.1642 349.836 38.1642ZM412.294 11.1402L395.83 50.3082H388.678L394.438 37.0602L383.782 11.1402H391.318L398.182 29.7162L405.142 11.1402H412.294ZM93.9925 110.068C91.6565 110.068 89.5445 109.668 87.6565 108.868C85.8005 108.068 84.3285 106.916 83.2405 105.412C82.1525 103.908 81.5925 102.132 81.5605 100.084H88.7605C88.8565 101.46 89.3365 102.548 90.2005 103.348C91.0965 104.148 92.3125 104.548 93.8485 104.548C95.4165 104.548 96.6485 104.18 97.5445 103.444C98.4405 102.676 98.8885 101.684 98.8885 100.468C98.8885 99.4762 98.5845 98.6602 97.9765 98.0202C97.3685 97.3802 96.6005 96.8842 95.6725 96.5322C94.7765 96.1482 93.5285 95.7322 91.9285 95.2842C89.7525 94.6442 87.9765 94.0202 86.6005 93.4122C85.2565 92.7722 84.0885 91.8282 83.0965 90.5802C82.1365 89.3002 81.6565 87.6042 81.6565 85.4922C81.6565 83.5082 82.1525 81.7802 83.1445 80.3082C84.1365 78.8362 85.5285 77.7162 87.3205 76.9482C89.1125 76.1482 91.1605 75.7482 93.4645 75.7482C96.9205 75.7482 99.7205 76.5962 101.865 78.2922C104.041 79.9562 105.241 82.2922 105.465 85.3002H98.0725C98.0085 84.1482 97.5125 83.2042 96.5845 82.4682C95.6885 81.7002 94.4885 81.3162 92.9845 81.3162C91.6725 81.3162 90.6165 81.6522 89.8165 82.3242C89.0485 82.9962 88.6645 83.9722 88.6645 85.2522C88.6645 86.1482 88.9525 86.9002 89.5285 87.5082C90.1365 88.0842 90.8725 88.5642 91.7365 88.9482C92.6325 89.3002 93.8805 89.7162 95.4805 90.1962C97.6565 90.8362 99.4325 91.4762 100.809 92.1162C102.185 92.7562 103.369 93.7162 104.361 94.9962C105.353 96.2762 105.849 97.9562 105.849 100.036C105.849 101.828 105.385 103.492 104.457 105.028C103.529 106.564 102.169 107.796 100.377 108.724C98.5845 109.62 96.4565 110.068 93.9925 110.068ZM141.195 95.8602C141.195 96.8202 141.131 97.6842 141.003 98.4522H121.563C121.723 100.372 122.395 101.876 123.579 102.964C124.763 104.052 126.219 104.596 127.947 104.596C130.443 104.596 132.219 103.524 133.275 101.38H140.523C139.755 103.94 138.283 106.052 136.107 107.716C133.931 109.348 131.259 110.164 128.091 110.164C125.531 110.164 123.227 109.604 121.179 108.484C119.163 107.332 117.579 105.716 116.427 103.636C115.307 101.556 114.747 99.1562 114.747 96.4362C114.747 93.6842 115.307 91.2682 116.427 89.1882C117.547 87.1082 119.115 85.5082 121.131 84.3882C123.147 83.2682 125.467 82.7082 128.091 82.7082C130.619 82.7082 132.875 83.2522 134.859 84.3402C136.875 85.4282 138.427 86.9802 139.515 88.9962C140.635 90.9802 141.195 93.2682 141.195 95.8602ZM134.235 93.9402C134.203 92.2122 133.579 90.8362 132.363 89.8122C131.147 88.7562 129.659 88.2282 127.899 88.2282C126.235 88.2282 124.827 88.7402 123.675 89.7642C122.555 90.7562 121.867 92.1482 121.611 93.9402H134.235ZM157.619 87.2682C158.483 85.8602 159.603 84.7562 160.979 83.9562C162.387 83.1562 163.987 82.7562 165.779 82.7562V89.8122H164.003C161.891 89.8122 160.291 90.3082 159.203 91.3002C158.147 92.2922 157.619 94.0202 157.619 96.4842V109.732H150.899V83.1402H157.619V87.2682ZM186.194 103.54L192.914 83.1402H200.066L190.226 109.732H182.066L172.274 83.1402H179.474L186.194 103.54ZM212.048 79.9722C210.864 79.9722 209.872 79.6042 209.072 78.8682C208.304 78.1002 207.92 77.1562 207.92 76.0362C207.92 74.9162 208.304 73.9882 209.072 73.2522C209.872 72.4842 210.864 72.1002 212.048 72.1002C213.232 72.1002 214.208 72.4842 214.976 73.2522C215.776 73.9882 216.176 74.9162 216.176 76.0362C216.176 77.1562 215.776 78.1002 214.976 78.8682C214.208 79.6042 213.232 79.9722 212.048 79.9722ZM215.36 83.1402V109.732H208.64V83.1402H215.36ZM225.072 96.4362C225.072 93.6842 225.632 91.2842 226.752 89.2362C227.872 87.1562 229.424 85.5562 231.408 84.4362C233.392 83.2842 235.664 82.7082 238.224 82.7082C241.52 82.7082 244.24 83.5402 246.384 85.2042C248.56 86.8362 250.016 89.1402 250.752 92.1162H243.504C243.12 90.9642 242.464 90.0682 241.536 89.4282C240.64 88.7562 239.52 88.4202 238.176 88.4202C236.256 88.4202 234.736 89.1242 233.616 90.5322C232.496 91.9082 231.936 93.8762 231.936 96.4362C231.936 98.9642 232.496 100.932 233.616 102.34C234.736 103.716 236.256 104.404 238.176 104.404C240.896 104.404 242.672 103.188 243.504 100.756H250.752C250.016 103.636 248.56 105.924 246.384 107.62C244.208 109.316 241.488 110.164 238.224 110.164C235.664 110.164 233.392 109.604 231.408 108.484C229.424 107.332 227.872 105.732 226.752 103.684C225.632 101.604 225.072 99.1882 225.072 96.4362ZM263.883 79.9722C262.699 79.9722 261.707 79.6042 260.907 78.8682C260.139 78.1002 259.755 77.1562 259.755 76.0362C259.755 74.9162 260.139 73.9882 260.907 73.2522C261.707 72.4842 262.699 72.1002 263.883 72.1002C265.067 72.1002 266.043 72.4842 266.811 73.2522C267.611 73.9882 268.011 74.9162 268.011 76.0362C268.011 77.1562 267.611 78.1002 266.811 78.8682C266.043 79.6042 265.067 79.9722 263.883 79.9722ZM267.195 83.1402V109.732H260.475V83.1402H267.195ZM290.442 110.164C287.882 110.164 285.578 109.604 283.53 108.484C281.482 107.332 279.866 105.716 278.682 103.636C277.53 101.556 276.954 99.1562 276.954 96.4362C276.954 93.7162 277.546 91.3162 278.73 89.2362C279.946 87.1562 281.594 85.5562 283.674 84.4362C285.754 83.2842 288.074 82.7082 290.634 82.7082C293.194 82.7082 295.514 83.2842 297.594 84.4362C299.674 85.5562 301.306 87.1562 302.49 89.2362C303.706 91.3162 304.314 93.7162 304.314 96.4362C304.314 99.1562 303.69 101.556 302.442 103.636C301.226 105.716 299.562 107.332 297.45 108.484C295.37 109.604 293.034 110.164 290.442 110.164ZM290.442 104.308C291.658 104.308 292.794 104.02 293.85 103.444C294.938 102.836 295.802 101.94 296.442 100.756C297.082 99.5722 297.402 98.1322 297.402 96.4362C297.402 93.9082 296.73 91.9722 295.386 90.6282C294.074 89.2522 292.458 88.5642 290.538 88.5642C288.618 88.5642 287.002 89.2522 285.69 90.6282C284.41 91.9722 283.77 93.9082 283.77 96.4362C283.77 98.9642 284.394 100.916 285.642 102.292C286.922 103.636 288.522 104.308 290.442 104.308ZM324.219 110.164C322.043 110.164 320.091 109.78 318.363 109.012C316.635 108.212 315.259 107.14 314.235 105.796C313.243 104.452 312.699 102.964 312.603 101.332H319.371C319.499 102.356 319.995 103.204 320.859 103.876C321.755 104.548 322.859 104.884 324.171 104.884C325.451 104.884 326.443 104.628 327.147 104.116C327.883 103.604 328.251 102.948 328.251 102.148C328.251 101.284 327.803 100.644 326.907 100.228C326.043 99.7802 324.651 99.3002 322.731 98.7882C320.747 98.3082 319.115 97.8122 317.835 97.3002C316.587 96.7882 315.499 96.0042 314.571 94.9482C313.675 93.8922 313.227 92.4682 313.227 90.6762C313.227 89.2042 313.643 87.8602 314.475 86.6442C315.339 85.4282 316.555 84.4682 318.123 83.7642C319.723 83.0602 321.595 82.7082 323.739 82.7082C326.907 82.7082 329.435 83.5082 331.323 85.1082C333.211 86.6762 334.251 88.8042 334.443 91.4922H328.011C327.915 90.4362 327.467 89.6042 326.667 88.9962C325.899 88.3562 324.859 88.0362 323.547 88.0362C322.331 88.0362 321.387 88.2602 320.715 88.7082C320.075 89.1562 319.755 89.7802 319.755 90.5802C319.755 91.4762 320.203 92.1642 321.099 92.6442C321.995 93.0922 323.387 93.5562 325.275 94.0362C327.195 94.5162 328.779 95.0122 330.027 95.5242C331.275 96.0362 332.347 96.8362 333.243 97.9242C334.171 98.9802 334.651 100.388 334.683 102.148C334.683 103.684 334.251 105.06 333.387 106.276C332.555 107.492 331.339 108.452 329.739 109.156C328.171 109.828 326.331 110.164 324.219 110.164Z" fill="#8F8F8F" fill-opacity="0.2"/>
</svg>
