<svg width="1440" height="1150" viewBox="0 0 1440 1150" fill="none" xmlns="http://www.w3.org/2000/svg">
<path d="M-22.7531 122.748H711.232L1462.75 114.755V1065.38H-22.7531V122.748Z" fill="#656D5F"/>
<path d="M-22.7531 122.748H711.232L1462.75 114.755V1065.38H-22.7531V122.748Z" fill="#8F8F8F" fill-opacity="0.2"/>
<path d="M-22.753 1056.15V1118.26C224.831 1159.25 472.416 1159.25 720 1118.26C967.412 1077.29 1214.82 1077.26 1462.24 1118.17V1056.15H-22.753Z" fill="#6E7469"/>
<path d="M-22.753 132.587V44.5717C224.831 -13.5239 472.416 -13.5239 720 44.5717C967.412 102.627 1214.82 102.667 1462.24 44.6926V132.587H-22.753Z" fill="#6E7469"/>
<path d="M-23.253 44.5717V122.248H-23.2531V122.748V1065.38V1065.88H-23.253V1118.26V1118.68L-22.8347 1118.75C224.804 1159.75 472.443 1159.75 720.082 1118.75C967.44 1077.79 1214.8 1077.77 1462.16 1118.66L1462.74 1118.76V1118.17V1065.88H1462.75H1463.25V1065.38V114.755V114.249L1462.75 114.255L1462.74 114.255V44.6926V44.0619L1462.12 44.2058C1214.79 102.163 967.452 102.123 720.114 44.0849C472.455 -14.0283 224.792 -14.0283 -22.8673 44.0849L-23.253 44.1754V44.5717Z" stroke="#656D5F"/>
<path d="M-23.253 44.5717V122.248H-23.2531V122.748V1065.38V1065.88H-23.253V1118.26V1118.68L-22.8347 1118.75C224.804 1159.75 472.443 1159.75 720.082 1118.75C967.44 1077.79 1214.8 1077.77 1462.16 1118.66L1462.74 1118.76V1118.17V1065.88H1462.75H1463.25V1065.38V114.755V114.249L1462.75 114.255L1462.74 114.255V44.6926V44.0619L1462.12 44.2058C1214.79 102.163 967.452 102.123 720.114 44.0849C472.455 -14.0283 224.792 -14.0283 -22.8673 44.0849L-23.253 44.1754V44.5717Z" stroke="#8F8F8F" stroke-opacity="0.2"/>
</svg>
