<svg width="1440" height="1173" viewBox="0 0 1440 1173" fill="none" xmlns="http://www.w3.org/2000/svg">
<path d="M0 105.416H1440V1054.9H0V105.416Z" fill="#656D5F"/>
<path d="M0 105.416H1440V1054.9H0V105.416Z" fill="#8F8F8F" fill-opacity="0.2"/>
<path d="M0 105.915H-0.5V105.415V35.5746V35.1615L-0.0943154 35.0836C239.968 -11.0273 480.032 -11.0273 720.094 35.0836C959.865 81.1386 1199.63 81.1706 1439.41 35.1795L1440 35.0656V35.6706V105.415V105.915H1439.5H0Z" fill="#6E7469"/>
<path d="M0 105.915H-0.5V105.415V35.5746V35.1615L-0.0943154 35.0836C239.968 -11.0273 480.032 -11.0273 720.094 35.0836C959.865 81.1386 1199.63 81.1706 1439.41 35.1795L1440 35.0656V35.6706V105.415V105.915H1439.5H0Z" stroke="#656D5F"/>
<path d="M0 105.915H-0.5V105.415V35.5746V35.1615L-0.0943154 35.0836C239.968 -11.0273 480.032 -11.0273 720.094 35.0836C959.865 81.1386 1199.63 81.1706 1439.41 35.1795L1440 35.0656V35.6706V105.415V105.915H1439.5H0Z" stroke="#8F8F8F" stroke-opacity="0.2"/>
<path d="M0 1043.67H-0.5V1044.17V1129.67V1130.07L-0.114459 1130.16C239.961 1186.61 480.039 1186.61 720.114 1130.16C959.873 1073.77 1199.63 1073.74 1439.39 1130.04L1440 1130.18V1129.55V1044.17V1043.67H1439.5H0Z" fill="#6E7469"/>
<path d="M0 1043.67H-0.5V1044.17V1129.67V1130.07L-0.114459 1130.16C239.961 1186.61 480.039 1186.61 720.114 1130.16C959.873 1073.77 1199.63 1073.74 1439.39 1130.04L1440 1130.18V1129.55V1044.17V1043.67H1439.5H0Z" stroke="#656D5F"/>
<path d="M0 1043.67H-0.5V1044.17V1129.67V1130.07L-0.114459 1130.16C239.961 1186.61 480.039 1186.61 720.114 1130.16C959.873 1073.77 1199.63 1073.74 1439.39 1130.04L1440 1130.18V1129.55V1044.17V1043.67H1439.5H0Z" stroke="#8F8F8F" stroke-opacity="0.2"/>
</svg>
