<svg width="543" height="474" viewBox="0 0 543 474" fill="none" xmlns="http://www.w3.org/2000/svg">
<circle cx="272" cy="237" r="237" fill="#EFDBCB"/>
<circle cx="272" cy="237" r="237" fill="#8F8F8F" fill-opacity="0.2"/>
<path d="M195.055 150.5V273C195.055 290 190.138 303.25 180.305 312.75C170.472 322.083 157.305 326.75 140.805 326.75C124.138 326.75 110.638 321.917 100.305 312.25C90.1383 302.583 85.055 289.083 85.055 271.75H120.055C120.222 279.25 121.972 285.083 125.305 289.25C128.805 293.417 133.805 295.5 140.305 295.5C146.638 295.5 151.472 293.5 154.805 289.5C158.138 285.5 159.805 280 159.805 273V150.5H195.055ZM451.133 150.5V325H416.133V211.5L369.383 325H342.883L295.883 211.5V325H260.883V150.5H300.633L356.133 280.25L411.633 150.5H451.133Z" fill="#656D5F"/>
<path d="M195.055 150.5V273C195.055 290 190.138 303.25 180.305 312.75C170.472 322.083 157.305 326.75 140.805 326.75C124.138 326.75 110.638 321.917 100.305 312.25C90.1383 302.583 85.055 289.083 85.055 271.75H120.055C120.222 279.25 121.972 285.083 125.305 289.25C128.805 293.417 133.805 295.5 140.305 295.5C146.638 295.5 151.472 293.5 154.805 289.5C158.138 285.5 159.805 280 159.805 273V150.5H195.055ZM451.133 150.5V325H416.133V211.5L369.383 325H342.883L295.883 211.5V325H260.883V150.5H300.633L356.133 280.25L411.633 150.5H451.133Z" fill="#8F8F8F" fill-opacity="0.2"/>
</svg>
